<svg width="199" height="62" viewBox="0 0 199 62" fill="none" xmlns="http://www.w3.org/2000/svg">
<path d="M41 60H0V7H41V60ZM4 18V55L10.5 49.5V13.5L4 18ZM14 29L27.8564 37L17 54.5L37 35L23 26.5L31 12L14 29Z" fill="#A42128"/>
<path d="M48.6875 35V8.81818H55.7955V19.4034H56.1534L64.0284 8.81818H72.3125L63.4659 20.4773L72.517 35H64.0284L58.1477 25.1818L55.7955 28.25V35H48.6875ZM81.223 35H73.5526L82.1946 8.81818H91.9105L100.553 35H92.8821L87.1548 16.0284H86.9503L81.223 35ZM79.7912 24.6705H94.2116V29.9886H79.7912V24.6705ZM99.3285 8.81818H107.255L112.368 19.4545H112.573L117.686 8.81818H125.613L115.999 26.767V35H108.942V26.767L99.3285 8.81818ZM150.583 8.81818V35H144.651L135.191 21.2443H135.038V35H127.93V8.81818H133.964L143.271 22.5227H143.475V8.81818H150.583ZM153.945 35V8.81818H172.815V14.5455H161.053V19.0455H171.843V24.7727H161.053V29.2727H172.763V35H153.945ZM190.453 17C190.385 16.1477 190.066 15.483 189.495 15.0057C188.932 14.5284 188.076 14.2898 186.925 14.2898C186.192 14.2898 185.591 14.3793 185.123 14.5582C184.662 14.7287 184.321 14.9631 184.1 15.2614C183.878 15.5597 183.763 15.9006 183.755 16.2841C183.738 16.5994 183.793 16.8849 183.921 17.1406C184.057 17.3878 184.27 17.6136 184.56 17.8182C184.85 18.0142 185.221 18.1932 185.672 18.3551C186.124 18.517 186.661 18.6619 187.283 18.7898L189.431 19.25C190.88 19.5568 192.12 19.9616 193.151 20.4645C194.182 20.9673 195.026 21.5597 195.682 22.2415C196.338 22.9148 196.82 23.6733 197.127 24.517C197.442 25.3608 197.604 26.2812 197.613 27.2784C197.604 29 197.174 30.4574 196.321 31.6506C195.469 32.8438 194.25 33.7514 192.665 34.3736C191.088 34.9957 189.192 35.3068 186.976 35.3068C184.701 35.3068 182.715 34.9702 181.019 34.2969C179.331 33.6236 178.019 32.5881 177.081 31.1903C176.152 29.7841 175.684 27.9858 175.675 25.7955H182.425C182.468 26.5966 182.668 27.2699 183.026 27.8153C183.384 28.3608 183.887 28.7741 184.534 29.0554C185.191 29.3366 185.971 29.4773 186.874 29.4773C187.632 29.4773 188.267 29.3835 188.779 29.196C189.29 29.0085 189.678 28.7486 189.942 28.4162C190.206 28.0838 190.343 27.7045 190.351 27.2784C190.343 26.8778 190.211 26.5284 189.955 26.2301C189.708 25.9233 189.299 25.6506 188.728 25.4119C188.157 25.1648 187.385 24.9347 186.414 24.7216L183.806 24.1591C181.488 23.6562 179.659 22.8168 178.321 21.6406C176.992 20.456 176.331 18.8409 176.34 16.7955C176.331 15.1335 176.775 13.6804 177.669 12.4361C178.573 11.1832 179.821 10.2074 181.415 9.50852C183.017 8.80966 184.854 8.46023 186.925 8.46023C189.039 8.46023 190.867 8.81392 192.409 9.52131C193.952 10.2287 195.141 11.2259 195.976 12.5128C196.82 13.7912 197.246 15.2869 197.255 17H190.453Z" fill="#A42128"/>
<path d="M61.66 55.42C61.26 55.7267 60.7533 55.94 60.14 56.06C59.5267 56.18 58.8733 56.24 58.18 56.24C57.34 56.24 56.5533 56.1 55.82 55.82C55.0867 55.5267 54.4467 55.0867 53.9 54.5C53.3533 53.9133 52.92 53.1667 52.6 52.26C52.28 51.34 52.12 50.2533 52.12 49C52.12 47.6933 52.2933 46.5867 52.64 45.68C53 44.76 53.4667 44.0133 54.04 43.44C54.6267 42.8533 55.28 42.4267 56 42.16C56.72 41.8933 57.4533 41.76 58.2 41.76C59 41.76 59.6533 41.8067 60.16 41.9C60.6667 41.98 61.1 42.0933 61.46 42.24L61.06 43.7C60.42 43.3933 59.5067 43.24 58.32 43.24C57.7733 43.24 57.2333 43.34 56.7 43.54C56.1667 43.74 55.6867 44.0667 55.26 44.52C54.8467 44.9733 54.5133 45.5667 54.26 46.3C54.0067 47.0333 53.88 47.9333 53.88 49C53.88 49.96 54 50.8 54.24 51.52C54.48 52.24 54.8067 52.84 55.22 53.32C55.6467 53.8 56.14 54.16 56.7 54.4C57.2733 54.64 57.8933 54.76 58.56 54.76C59.16 54.76 59.68 54.7 60.12 54.58C60.5733 54.46 60.9533 54.3067 61.26 54.12L61.66 55.42ZM74.1058 42H75.7658V56H74.1058V42ZM89.1461 42.14C89.6528 42.0467 90.2328 41.9733 90.8861 41.92C91.5528 41.8667 92.1594 41.84 92.7061 41.84C93.3194 41.84 93.8994 41.9067 94.4461 42.04C95.0061 42.1733 95.4928 42.3933 95.9061 42.7C96.3328 43.0067 96.6728 43.4067 96.9261 43.9C97.1794 44.3933 97.3061 44.9933 97.3061 45.7C97.3061 46.7933 97.0061 47.68 96.4061 48.36C95.8061 49.04 95.0461 49.4933 94.1261 49.72L95.0861 50.46L98.5661 56H96.6261L92.7661 49.96L90.8061 49.66V56H89.1461V42.14ZM92.7461 43.28C92.5728 43.28 92.3928 43.28 92.2061 43.28C92.0194 43.28 91.8394 43.2867 91.6661 43.3C91.4928 43.3133 91.3261 43.3267 91.1661 43.34C91.0194 43.3533 90.8994 43.3733 90.8061 43.4V48.56H92.3661C93.2861 48.56 94.0461 48.3333 94.6461 47.88C95.2461 47.4267 95.5461 46.72 95.5461 45.76C95.5461 45.04 95.2994 44.4467 94.8061 43.98C94.3128 43.5133 93.6261 43.28 92.7461 43.28ZM118.722 55.42C118.322 55.7267 117.815 55.94 117.202 56.06C116.588 56.18 115.935 56.24 115.242 56.24C114.402 56.24 113.615 56.1 112.882 55.82C112.148 55.5267 111.508 55.0867 110.962 54.5C110.415 53.9133 109.982 53.1667 109.662 52.26C109.342 51.34 109.182 50.2533 109.182 49C109.182 47.6933 109.355 46.5867 109.702 45.68C110.062 44.76 110.528 44.0133 111.102 43.44C111.688 42.8533 112.342 42.4267 113.062 42.16C113.782 41.8933 114.515 41.76 115.262 41.76C116.062 41.76 116.715 41.8067 117.222 41.9C117.728 41.98 118.162 42.0933 118.522 42.24L118.122 43.7C117.482 43.3933 116.568 43.24 115.382 43.24C114.835 43.24 114.295 43.34 113.762 43.54C113.228 43.74 112.748 44.0667 112.322 44.52C111.908 44.9733 111.575 45.5667 111.322 46.3C111.068 47.0333 110.942 47.9333 110.942 49C110.942 49.96 111.062 50.8 111.302 51.52C111.542 52.24 111.868 52.84 112.282 53.32C112.708 53.8 113.202 54.16 113.762 54.4C114.335 54.64 114.955 54.76 115.622 54.76C116.222 54.76 116.742 54.7 117.182 54.58C117.635 54.46 118.015 54.3067 118.322 54.12L118.722 55.42ZM138.828 42H140.428V51.34C140.428 52.18 140.314 52.9067 140.088 53.52C139.874 54.1333 139.561 54.64 139.148 55.04C138.748 55.4267 138.261 55.7133 137.688 55.9C137.114 56.0867 136.481 56.18 135.788 56.18C134.134 56.18 132.888 55.8067 132.048 55.06C131.208 54.3133 130.788 53.18 130.788 51.66V42H132.448V50.88C132.448 51.5867 132.514 52.1867 132.648 52.68C132.794 53.16 133.008 53.5533 133.288 53.86C133.568 54.1533 133.914 54.3667 134.328 54.5C134.754 54.6333 135.248 54.7 135.808 54.7C136.888 54.7 137.661 54.4067 138.128 53.82C138.594 53.22 138.828 52.24 138.828 50.88V42ZM153.814 42H155.474V56H153.814V42ZM177.895 43.48H173.535V56H171.875V43.48H167.515V42H177.895V43.48ZM195.868 52.44C195.868 51.88 195.702 51.4267 195.368 51.08C195.035 50.72 194.615 50.4067 194.108 50.14C193.615 49.86 193.075 49.6 192.488 49.36C191.902 49.12 191.355 48.8333 190.848 48.5C190.355 48.1533 189.942 47.7333 189.608 47.24C189.275 46.7333 189.108 46.0933 189.108 45.32C189.108 44.2267 189.488 43.36 190.248 42.72C191.008 42.08 192.088 41.76 193.488 41.76C194.302 41.76 195.042 41.82 195.708 41.94C196.375 42.06 196.895 42.2133 197.268 42.4L196.768 43.86C196.462 43.7133 196.008 43.5733 195.408 43.44C194.822 43.3067 194.155 43.24 193.408 43.24C192.528 43.24 191.868 43.44 191.428 43.84C190.988 44.2267 190.768 44.6867 190.768 45.22C190.768 45.74 190.935 46.1733 191.268 46.52C191.602 46.8667 192.015 47.18 192.508 47.46C193.015 47.7267 193.562 47.9933 194.148 48.26C194.735 48.5267 195.275 48.84 195.768 49.2C196.275 49.5467 196.695 49.9667 197.028 50.46C197.362 50.9533 197.528 51.5667 197.528 52.3C197.528 52.9 197.422 53.44 197.208 53.92C196.995 54.4 196.682 54.8133 196.268 55.16C195.855 55.5067 195.355 55.7733 194.768 55.96C194.182 56.1467 193.515 56.24 192.768 56.24C191.768 56.24 190.942 56.16 190.288 56C189.635 55.8533 189.128 55.6867 188.768 55.5L189.328 54C189.635 54.1733 190.088 54.3467 190.688 54.52C191.288 54.68 191.962 54.76 192.708 54.76C193.148 54.76 193.562 54.72 193.948 54.64C194.335 54.5467 194.668 54.4067 194.948 54.22C195.228 54.02 195.448 53.7733 195.608 53.48C195.782 53.1867 195.868 52.84 195.868 52.44Z" fill="#A42128"/>
<path d="M197 38L47 38" stroke="black"/>
<path d="M197 60L47 60" stroke="black"/>
</svg>
