<svg width="875" height="1138" viewBox="0 0 875 1138" fill="none" xmlns="http://www.w3.org/2000/svg">
<g clip-path="url(#clip0_687_287)">
<rect width="875" height="1138" fill="white"/>
<rect y="278" width="100" height="460" fill="white"/>
<rect x="773" y="278" width="100" height="460" fill="white"/>
<rect width="388" height="277" fill="#FFF2DD"/>
<path d="M200 1031.5V938H0V1138H200V1070.5" stroke="#7D7D7D" stroke-dasharray="12 12"/>
<path d="M166.5 278H0V0H388V278H223.5" stroke="#7D7D7D" stroke-dasharray="12 12"/>
<path d="M575.5 278H487V0H875V278H657" stroke="#7D7D7D" stroke-dasharray="12 12"/>
<rect x="387.5" y="0.5" width="100" height="277" fill="#CDEDF6" stroke="#7D7D7D" stroke-dasharray="12 12"/>
<path opacity="0.8" d="M100 556V278H0V739H100V617.5" stroke="#7D7D7D" stroke-dasharray="12 12"/>
<rect x="823" y="1138" width="400" height="52" transform="rotate(-90 823 1138)" fill="#E6E6E6" stroke="black"/>
<rect x="486" width="389" height="278" fill="#FFF5F4"/>
<rect x="250" y="1086" width="245" height="52" fill="#E6E6E6" stroke="black"/>
<rect x="545" y="1086" width="278" height="52" fill="#E6E6E6" stroke="black"/>
<rect x="250" y="738" width="245" height="52" fill="#E6E6E6" stroke="black"/>
<rect x="545" y="738" width="278" height="52" fill="#E6E6E6" stroke="black"/>
<rect x="1" y="738" width="200" height="201" fill="#F3FBFF"/>
<rect x="250" y="886" width="245" height="104" fill="#E6E6E6" stroke="black"/>
<path d="M200.291 880.5L200 939H0V738H201L200.557 827" stroke="#7D7D7D" stroke-dasharray="12 12"/>
<path opacity="0.8" d="M775 457.5V277H875V739H775V520" stroke="#7D7D7D" stroke-dasharray="12 12"/>
<rect x="545" y="886" width="245" height="104" fill="#E6E6E6" stroke="black"/>
<rect x="25.5" y="513.5" width="186" height="48" transform="rotate(-90 25.5 513.5)" fill="#E6E6E6" stroke="black"/>
<rect x="529.5" y="217.5" width="186" height="48" transform="rotate(-90 529.5 217.5)" fill="white" stroke="black"/>
<rect x="183.25" y="545.25" width="184.5" height="46.5" fill="white" stroke="#E0E0E0" stroke-width="2.5"/>
<rect x="183.25" y="373.25" width="184.5" height="46.5" fill="white" stroke="#E0E0E0" stroke-width="2.5"/>
<rect x="100.5" y="100.5" width="186" height="48" fill="#E6E6E6" stroke="black"/>
<rect x="656.5" y="175.5" width="186" height="48" fill="white" stroke="black"/>
<rect x="546.25" y="545.25" width="184.5" height="46.5" fill="white" stroke="#E0E0E0" stroke-width="2.5"/>
<rect x="1" y="939" width="199" height="199" fill="#F3FBFF"/>
<path d="M437 0V277" stroke="#7D7D7D" stroke-dasharray="12 12"/>
<circle cx="100" cy="840" r="50" fill="#D6E4ED"/>
<circle cx="100" cy="1036" r="50" fill="#D6E4ED"/>
<rect x="606" y="508" width="1" height="1" fill="#D9D9D9"/>
<rect x="607" y="586" width="1" height="1" transform="rotate(-180 607 586)" fill="#D9D9D9"/>
<path d="M676.845 520.642C684.061 514.697 697.335 514.213 703.619 520.642C710.186 527.36 701.087 544 701.087 544H678.847C678.847 544 669.432 526.75 676.845 520.642Z" fill="#D7E3EF"/>
<path d="M316.845 520.642C324.061 514.697 337.335 514.213 343.619 520.642C350.186 527.36 341.087 544 341.087 544H318.847C318.847 544 309.432 526.75 316.845 520.642Z" fill="#D7E3EF"/>
<path d="M316.845 348.642C324.061 342.697 337.335 342.213 343.619 348.642C350.186 355.36 341.087 372 341.087 372H318.847C318.847 372 309.432 354.75 316.845 348.642Z" fill="#D7E3EF"/>
<path d="M804.597 148.252C809.383 148.194 813.895 149.621 816.725 152.516C818.069 153.891 818.679 155.838 818.744 158.161C818.809 160.485 818.324 163.055 817.615 165.491C816.91 167.917 816.002 170.15 815.267 171.781C814.9 172.595 814.578 173.255 814.349 173.709C814.342 173.723 814.334 173.736 814.327 173.75H793.606C793.596 173.729 793.584 173.707 793.573 173.686C793.337 173.216 793.007 172.535 792.633 171.698C791.882 170.02 790.961 167.733 790.27 165.273C789.574 162.801 789.131 160.226 789.278 157.949C789.425 155.684 790.142 153.841 791.64 152.606C794.988 149.848 799.819 148.31 804.597 148.252Z" fill="#D7E3EF" stroke="#D6E4ED" stroke-width="2.5"/>
<path d="M703.155 616.358C695.939 622.303 682.665 622.787 676.381 616.358C669.814 609.64 678.913 593 678.913 593H701.153C701.153 593 710.568 610.25 703.155 616.358Z" fill="#D7E3EF"/>
<path d="M261.155 173.358C253.939 179.303 240.665 179.787 234.381 173.358C227.814 166.64 236.913 150 236.913 150H259.153C259.153 150 268.568 167.25 261.155 173.358Z" fill="#D7E3EF"/>
<path d="M343.155 616.358C335.939 622.303 322.665 622.787 316.381 616.358C309.814 609.64 318.913 593 318.913 593H341.153C341.153 593 350.568 610.25 343.155 616.358Z" fill="#D7E3EF"/>
<path d="M343.155 444.358C335.939 450.303 322.665 450.787 316.381 444.358C309.814 437.64 318.913 421 318.913 421H341.153C341.153 421 350.568 438.25 343.155 444.358Z" fill="#D7E3EF"/>
<path d="M803.403 250.748C798.617 250.806 794.105 249.379 791.275 246.484C789.931 245.109 789.321 243.162 789.256 240.839C789.191 238.515 789.676 235.945 790.385 233.509C791.09 231.083 791.998 228.85 792.733 227.219C793.1 226.405 793.422 225.745 793.651 225.291C793.658 225.277 793.666 225.264 793.673 225.25H814.394C814.404 225.271 814.416 225.293 814.427 225.314C814.663 225.784 814.993 226.465 815.367 227.302C816.118 228.98 817.039 231.267 817.73 233.727C818.426 236.199 818.869 238.774 818.722 241.051C818.575 243.316 817.858 245.159 816.36 246.394C813.012 249.152 808.181 250.69 803.403 250.748Z" fill="#D7E3EF" stroke="#D6E4ED" stroke-width="2.5"/>
<path d="M622.845 520.642C630.061 514.697 643.335 514.213 649.619 520.642C656.186 527.36 647.087 544 647.087 544H624.847C624.847 544 615.432 526.75 622.845 520.642Z" fill="#D7E3EF"/>
<path d="M180.845 76.6421C188.061 70.6966 201.335 70.2134 207.619 76.6421C214.186 83.3603 205.087 100 205.087 100H182.847C182.847 100 173.432 82.7497 180.845 76.6421Z" fill="#D7E3EF"/>
<path d="M262.845 520.642C270.061 514.697 283.335 514.213 289.619 520.642C296.186 527.36 287.087 544 287.087 544H264.847C264.847 544 255.432 526.75 262.845 520.642Z" fill="#D7E3EF"/>
<path d="M262.845 348.642C270.061 342.697 283.335 342.213 289.619 348.642C296.186 355.36 287.087 372 287.087 372H264.847C264.847 372 255.432 354.75 262.845 348.642Z" fill="#D7E3EF"/>
<path d="M750.597 148.252C755.383 148.194 759.895 149.621 762.725 152.516C764.069 153.891 764.679 155.838 764.744 158.161C764.809 160.485 764.324 163.055 763.615 165.491C762.91 167.917 762.002 170.15 761.267 171.781C760.9 172.595 760.578 173.255 760.349 173.709C760.342 173.723 760.334 173.736 760.327 173.75H739.606C739.596 173.729 739.584 173.707 739.573 173.686C739.337 173.216 739.007 172.535 738.633 171.698C737.882 170.02 736.961 167.733 736.27 165.273C735.574 162.801 735.131 160.226 735.278 157.949C735.425 155.684 736.142 153.841 737.64 152.606C740.988 149.848 745.819 148.31 750.597 148.252Z" fill="#D7E3EF" stroke="#D6E4ED" stroke-width="2.5"/>
<path d="M649.155 616.358C641.939 622.303 628.665 622.787 622.381 616.358C615.814 609.64 624.913 593 624.913 593H647.153C647.153 593 656.568 610.25 649.155 616.358Z" fill="#D7E3EF"/>
<path d="M207.155 173.358C199.939 179.303 186.665 179.787 180.381 173.358C173.814 166.64 182.913 150 182.913 150H205.153C205.153 150 214.568 167.25 207.155 173.358Z" fill="#D7E3EF"/>
<path d="M289.155 616.358C281.939 622.303 268.665 622.787 262.381 616.358C255.814 609.64 264.913 593 264.913 593H287.153C287.153 593 296.568 610.25 289.155 616.358Z" fill="#D7E3EF"/>
<path d="M289.155 444.358C281.939 450.303 268.665 450.787 262.381 444.358C255.814 437.64 264.913 421 264.913 421H287.153C287.153 421 296.568 438.25 289.155 444.358Z" fill="#D7E3EF"/>
<path d="M749.403 250.748C744.617 250.806 740.105 249.379 737.275 246.484C735.931 245.109 735.321 243.162 735.256 240.839C735.191 238.515 735.676 235.945 736.385 233.509C737.09 231.083 737.998 228.85 738.733 227.219C739.1 226.405 739.422 225.745 739.651 225.291C739.658 225.277 739.666 225.264 739.673 225.25H760.394C760.404 225.271 760.416 225.293 760.427 225.314C760.663 225.784 760.993 226.465 761.367 227.302C762.118 228.98 763.039 231.267 763.73 233.727C764.426 236.199 764.869 238.774 764.722 241.051C764.575 243.316 763.858 245.159 762.36 246.394C759.012 249.152 754.181 250.69 749.403 250.748Z" fill="#D7E3EF" stroke="#D6E4ED" stroke-width="2.5"/>
<path d="M568.845 520.642C576.061 514.697 589.335 514.213 595.619 520.642C602.186 527.36 593.087 544 593.087 544H570.847C570.847 544 561.432 526.75 568.845 520.642Z" fill="#D7E3EF"/>
<path d="M208.845 520.642C216.061 514.697 229.335 514.213 235.619 520.642C242.186 527.36 233.087 544 233.087 544H210.847C210.847 544 201.432 526.75 208.845 520.642Z" fill="#D7E3EF"/>
<path d="M208.845 348.642C216.061 342.697 229.335 342.213 235.619 348.642C242.186 355.36 233.087 372 233.087 372H210.847C210.847 372 201.432 354.75 208.845 348.642Z" fill="#D7E3EF"/>
<path d="M696.597 148.252C701.383 148.194 705.895 149.621 708.725 152.516C710.069 153.891 710.679 155.838 710.744 158.161C710.809 160.485 710.324 163.055 709.615 165.491C708.91 167.917 708.002 170.15 707.267 171.781C706.9 172.595 706.578 173.255 706.349 173.709C706.342 173.723 706.334 173.736 706.327 173.75H685.606C685.596 173.729 685.584 173.707 685.573 173.686C685.337 173.216 685.007 172.535 684.633 171.698C683.882 170.02 682.961 167.733 682.27 165.273C681.574 162.801 681.131 160.226 681.278 157.949C681.425 155.684 682.142 153.841 683.64 152.606C686.988 149.848 691.819 148.31 696.597 148.252Z" fill="#D7E3EF" stroke="#D6E4ED" stroke-width="2.5"/>
<path d="M595.155 616.358C587.939 622.303 574.665 622.787 568.381 616.358C561.814 609.64 570.913 593 570.913 593H593.153C593.153 593 602.568 610.25 595.155 616.358Z" fill="#D7E3EF"/>
<path d="M153.155 173.358C145.939 179.303 132.665 179.787 126.381 173.358C119.814 166.64 128.913 150 128.913 150H151.153C151.153 150 160.568 167.25 153.155 173.358Z" fill="#D7E3EF"/>
<path d="M235.155 616.358C227.939 622.303 214.665 622.787 208.381 616.358C201.814 609.64 210.913 593 210.913 593H233.153C233.153 593 242.568 610.25 235.155 616.358Z" fill="#D7E3EF"/>
<path d="M99.4121 917.498C94.494 917.557 89.7551 916.095 86.7383 913.009C85.2157 911.451 84.5743 909.292 84.5059 906.86C84.4375 904.428 84.9454 901.773 85.665 899.299C86.3834 896.829 87.3055 894.561 88.0498 892.91C88.4216 892.085 88.7483 891.416 88.9814 890.953C89.0751 890.767 89.1545 890.615 89.2148 890.5H110.852C110.914 890.621 110.998 890.781 111.097 890.978C111.337 891.455 111.672 892.147 112.052 892.995C112.812 894.694 113.747 897.017 114.452 899.523C115.158 902.035 115.625 904.703 115.471 907.1C115.316 909.491 114.548 911.562 112.837 912.972C109.333 915.859 104.327 917.439 99.4121 917.498Z" fill="white" stroke="#75B7BA"/>
<path d="M99.4121 1112.5C94.494 1112.56 89.7551 1111.1 86.7383 1108.01C85.2157 1106.45 84.5743 1104.29 84.5059 1101.86C84.4375 1099.43 84.9454 1096.77 85.665 1094.3C86.3834 1091.83 87.3055 1089.56 88.0498 1087.91C88.4216 1087.09 88.7483 1086.42 88.9814 1085.95C89.0751 1085.77 89.1545 1085.62 89.2148 1085.5H110.852C110.914 1085.62 110.998 1085.78 111.097 1085.98C111.337 1086.46 111.672 1087.15 112.052 1088C112.812 1089.69 113.747 1092.02 114.452 1094.52C115.158 1097.04 115.625 1099.7 115.471 1102.1C115.316 1104.49 114.548 1106.56 112.837 1107.97C109.333 1110.86 104.327 1112.44 99.4121 1112.5Z" fill="white" stroke="#75B7BA"/>
<path d="M31.3939 875.404C28.8018 871.224 27.6049 866.411 28.6883 862.234C29.2352 860.125 30.7521 858.461 32.7987 857.145C34.8457 855.83 37.3811 854.893 39.8715 854.231C42.3576 853.569 44.7751 853.187 46.5734 852.971C47.4718 852.863 48.2138 852.797 48.7303 852.757C48.9377 852.742 49.1088 852.731 49.2389 852.723L60.4193 871.247C60.3486 871.363 60.2545 871.518 60.1371 871.704C59.852 872.156 59.4335 872.8 58.9033 873.564C57.8419 875.093 56.3364 877.094 54.5545 878.993C52.7688 880.895 50.726 882.674 48.5945 883.779C46.467 884.883 44.2973 885.295 42.2061 884.559C37.9237 883.051 33.9842 879.581 31.3939 875.404Z" fill="white" stroke="#75B7BA"/>
<path d="M31.3939 1070.4C28.8018 1066.22 27.6049 1061.41 28.6883 1057.23C29.2352 1055.13 30.7521 1053.46 32.7987 1052.15C34.8457 1050.83 37.3811 1049.89 39.8715 1049.23C42.3576 1048.57 44.7751 1048.19 46.5734 1047.97C47.4718 1047.86 48.2138 1047.8 48.7303 1047.76C48.9377 1047.74 49.1088 1047.73 49.2389 1047.72L60.4193 1066.25C60.3486 1066.36 60.2545 1066.52 60.1371 1066.7C59.852 1067.16 59.4335 1067.8 58.9033 1068.56C57.8419 1070.09 56.3364 1072.09 54.5545 1073.99C52.7688 1075.9 50.726 1077.67 48.5945 1078.78C46.467 1079.88 44.2973 1080.3 42.2061 1079.56C37.9237 1078.05 33.9842 1074.58 31.3939 1070.4Z" fill="white" stroke="#75B7BA"/>
<path d="M168.518 876.176C166.093 880.456 162.444 883.814 158.258 884.867C156.146 885.398 153.958 884.865 151.822 883.7C149.686 882.535 147.648 880.759 145.873 878.891C144.1 877.027 142.605 875.089 141.553 873.615C141.028 872.878 140.614 872.259 140.331 871.824C140.218 871.65 140.127 871.505 140.057 871.395L150.951 852.7C151.087 852.706 151.267 852.715 151.487 852.729C152.021 852.762 152.786 852.82 153.711 852.919C155.561 853.117 158.039 853.479 160.56 854.132C163.086 854.787 165.626 855.726 167.619 857.066C169.607 858.404 171.009 860.11 171.366 862.298C172.096 866.779 170.941 871.9 168.518 876.176Z" fill="white" stroke="#75B7BA"/>
<path d="M168.518 1071.18C166.093 1075.46 162.444 1078.81 158.258 1079.87C156.146 1080.4 153.958 1079.87 151.822 1078.7C149.686 1077.53 147.648 1075.76 145.873 1073.89C144.1 1072.03 142.605 1070.09 141.553 1068.61C141.028 1067.88 140.614 1067.26 140.331 1066.82C140.218 1066.65 140.127 1066.5 140.057 1066.39L150.951 1047.7C151.087 1047.71 151.267 1047.72 151.487 1047.73C152.021 1047.76 152.786 1047.82 153.711 1047.92C155.561 1048.12 158.039 1048.48 160.56 1049.13C163.086 1049.79 165.626 1050.73 167.619 1052.07C169.607 1053.4 171.009 1055.11 171.366 1057.3C172.096 1061.78 170.941 1066.9 168.518 1071.18Z" fill="white" stroke="#75B7BA"/>
<path d="M235.155 444.358C227.939 450.303 214.665 450.787 208.381 444.358C201.814 437.64 210.913 421 210.913 421H233.153C233.153 421 242.568 438.25 235.155 444.358Z" fill="#D7E3EF"/>
<path d="M695.403 250.748C690.617 250.806 686.105 249.379 683.275 246.484C681.931 245.109 681.321 243.162 681.256 240.839C681.191 238.515 681.676 235.945 682.385 233.509C683.09 231.083 683.998 228.85 684.733 227.219C685.1 226.405 685.422 225.745 685.651 225.291C685.658 225.277 685.666 225.264 685.673 225.25H706.394C706.404 225.271 706.416 225.293 706.427 225.314C706.663 225.784 706.993 226.465 707.367 227.302C708.118 228.98 709.039 231.267 709.73 233.727C710.426 236.199 710.869 238.774 710.722 241.051C710.575 243.316 709.858 245.159 708.36 246.394C705.012 249.152 700.181 250.69 695.403 250.748Z" fill="#D7E3EF" stroke="#D6E4ED" stroke-width="2.5"/>
<path d="M502.502 69.4004C502.445 64.6575 503.86 60.2208 506.69 57.4541C508.005 56.1694 509.882 55.5702 512.168 55.5059C514.455 55.4415 516.998 55.9201 519.422 56.625C521.833 57.3263 524.055 58.2299 525.679 58.9619C526.433 59.3018 527.054 59.6036 527.5 59.8271V80.2393C527.037 80.4707 526.387 80.7858 525.597 81.1396C523.926 81.8878 521.65 82.803 519.205 83.4902C516.745 84.1817 514.201 84.617 511.965 84.4727C509.741 84.3291 507.976 83.6281 506.8 82.2012C504.084 78.905 502.559 74.1324 502.502 69.4004Z" fill="#D7E3EF" stroke="#D7E3EF" stroke-width="3"/>
<path d="M604.498 70.5996C604.555 75.3425 603.14 79.7792 600.31 82.5459C598.995 83.8306 597.118 84.4298 594.832 84.4941C592.545 84.5585 590.002 84.0799 587.578 83.375C585.167 82.6737 582.945 81.7701 581.321 81.0381C580.567 80.6982 579.946 80.3964 579.5 80.1729V59.7607C579.963 59.5293 580.613 59.2142 581.403 58.8604C583.074 58.1122 585.35 57.197 587.795 56.5098C590.255 55.8183 592.799 55.383 595.035 55.5273C597.259 55.6709 599.024 56.3719 600.2 57.7988C602.916 61.095 604.441 65.8676 604.498 70.5996Z" fill="#D7E3EF" stroke="#D7E3EF" stroke-width="3"/>
<path d="M502.502 123.4C502.445 118.658 503.86 114.221 506.69 111.454C508.005 110.169 509.882 109.57 512.168 109.506C514.455 109.442 516.998 109.92 519.422 110.625C521.833 111.326 524.055 112.23 525.679 112.962C526.433 113.302 527.054 113.604 527.5 113.827V134.239C527.037 134.471 526.387 134.786 525.597 135.14C523.926 135.888 521.65 136.803 519.205 137.49C516.745 138.182 514.201 138.617 511.965 138.473C509.741 138.329 507.976 137.628 506.8 136.201C504.084 132.905 502.559 128.132 502.502 123.4Z" fill="#D7E3EF" stroke="#D7E3EF" stroke-width="3"/>
<path d="M604.498 124.6C604.555 129.342 603.14 133.779 600.31 136.546C598.995 137.831 597.118 138.43 594.832 138.494C592.545 138.558 590.002 138.08 587.578 137.375C585.167 136.674 582.945 135.77 581.321 135.038C580.567 134.698 579.946 134.396 579.5 134.173V113.761C579.963 113.529 580.613 113.214 581.403 112.86C583.074 112.112 585.35 111.197 587.795 110.51C590.255 109.818 592.799 109.383 595.035 109.527C597.259 109.671 599.024 110.372 600.2 111.799C602.916 115.095 604.441 119.868 604.498 124.6Z" fill="#D7E3EF" stroke="#D7E3EF" stroke-width="3"/>
<path d="M502.502 177.4C502.445 172.658 503.86 168.221 506.69 165.454C508.005 164.169 509.882 163.57 512.168 163.506C514.455 163.442 516.998 163.92 519.422 164.625C521.833 165.326 524.055 166.23 525.679 166.962C526.433 167.302 527.054 167.604 527.5 167.827V188.239C527.037 188.471 526.387 188.786 525.597 189.14C523.926 189.888 521.65 190.803 519.205 191.49C516.745 192.182 514.201 192.617 511.965 192.473C509.741 192.329 507.976 191.628 506.8 190.201C504.084 186.905 502.559 182.132 502.502 177.4Z" fill="#D7E3EF" stroke="#D7E3EF" stroke-width="3"/>
<path d="M604.498 178.6C604.555 183.342 603.14 187.779 600.31 190.546C598.995 191.831 597.118 192.43 594.832 192.494C592.545 192.558 590.002 192.08 587.578 191.375C585.167 190.674 582.945 189.77 581.321 189.038C580.567 188.698 579.946 188.396 579.5 188.173V167.761C579.963 167.529 580.613 167.214 581.403 166.86C583.074 166.112 585.35 165.197 587.795 164.51C590.255 163.818 592.799 163.383 595.035 163.527C597.259 163.671 599.024 164.372 600.2 165.799C602.916 169.095 604.441 173.868 604.498 178.6Z" fill="#D7E3EF" stroke="#D7E3EF" stroke-width="3"/>
<rect x="248" y="41" width="106" height="22" rx="11" fill="#FFDBDA"/>
<rect x="660" y="90" width="82" height="22" rx="11" fill="#CDEBF5"/>
<rect x="62" y="952" width="82" height="22" rx="11" fill="#CDEBF5"/>
<rect x="62" y="754" width="82" height="22" rx="11" fill="#CDEBF5"/>
<rect x="449" y="826" width="140" height="23" rx="11.5" fill="#CDEBF5"/>
<path d="M267.612 57.478C267.228 57.754 266.736 57.952 266.136 58.072C265.548 58.192 264.942 58.252 264.318 58.252C263.562 58.252 262.842 58.138 262.158 57.91C261.486 57.67 260.892 57.292 260.376 56.776C259.86 56.248 259.446 55.57 259.134 54.742C258.834 53.902 258.684 52.888 258.684 51.7C258.684 50.464 258.852 49.432 259.188 48.604C259.536 47.764 259.98 47.092 260.52 46.588C261.072 46.072 261.684 45.706 262.356 45.49C263.028 45.262 263.7 45.148 264.372 45.148C265.092 45.148 265.698 45.196 266.19 45.292C266.694 45.388 267.108 45.502 267.432 45.634L266.946 47.722C266.67 47.59 266.34 47.494 265.956 47.434C265.584 47.374 265.128 47.344 264.588 47.344C263.592 47.344 262.788 47.698 262.176 48.406C261.576 49.114 261.276 50.212 261.276 51.7C261.276 52.348 261.348 52.942 261.492 53.482C261.636 54.01 261.852 54.466 262.14 54.85C262.44 55.222 262.806 55.516 263.238 55.732C263.682 55.936 264.192 56.038 264.768 56.038C265.308 56.038 265.764 55.984 266.136 55.876C266.508 55.768 266.832 55.63 267.108 55.462L267.612 57.478ZM269.135 45.4H276.605V47.596H271.601V50.53H276.155V52.726H271.601V55.804H276.695V58H269.135V45.4ZM278.143 51.7C278.143 49.6 278.605 47.986 279.529 46.858C280.453 45.718 281.773 45.148 283.489 45.148C284.389 45.148 285.175 45.304 285.847 45.616C286.519 45.928 287.077 46.372 287.521 46.948C287.965 47.524 288.295 48.214 288.511 49.018C288.727 49.822 288.835 50.716 288.835 51.7C288.835 53.8 288.367 55.42 287.431 56.56C286.507 57.688 285.193 58.252 283.489 58.252C282.577 58.252 281.785 58.096 281.113 57.784C280.441 57.472 279.883 57.028 279.439 56.452C279.007 55.876 278.683 55.186 278.467 54.382C278.251 53.578 278.143 52.684 278.143 51.7ZM280.735 51.7C280.735 52.336 280.789 52.924 280.897 53.464C281.005 53.992 281.167 54.448 281.383 54.832C281.611 55.216 281.899 55.516 282.247 55.732C282.595 55.948 283.009 56.056 283.489 56.056C284.365 56.056 285.043 55.714 285.523 55.03C286.003 54.346 286.243 53.236 286.243 51.7C286.243 51.088 286.189 50.518 286.081 49.99C285.985 49.462 285.829 49 285.613 48.604C285.397 48.208 285.115 47.902 284.767 47.686C284.419 47.458 283.993 47.344 283.489 47.344C282.613 47.344 281.935 47.698 281.455 48.406C280.975 49.102 280.735 50.2 280.735 51.7ZM294.922 45.526C295.198 45.478 295.492 45.436 295.804 45.4C296.128 45.352 296.446 45.316 296.758 45.292C297.082 45.268 297.394 45.25 297.694 45.238C297.994 45.226 298.27 45.22 298.522 45.22C299.11 45.22 299.686 45.274 300.25 45.382C300.826 45.49 301.336 45.676 301.78 45.94C302.236 46.204 302.596 46.57 302.86 47.038C303.136 47.494 303.274 48.07 303.274 48.766C303.274 49.798 303.034 50.638 302.554 51.286C302.074 51.934 301.432 52.384 300.628 52.636L301.51 53.194L304.39 58H301.546L298.684 53.068L297.388 52.834V58H294.922V45.526ZM298.702 47.416C298.45 47.416 298.198 47.422 297.946 47.434C297.706 47.446 297.52 47.47 297.388 47.506V51.16H298.432C299.116 51.16 299.662 51.004 300.07 50.692C300.478 50.38 300.682 49.864 300.682 49.144C300.682 48.604 300.514 48.184 300.178 47.884C299.842 47.572 299.35 47.416 298.702 47.416ZM304.756 51.7C304.756 49.6 305.218 47.986 306.142 46.858C307.066 45.718 308.386 45.148 310.102 45.148C311.002 45.148 311.788 45.304 312.46 45.616C313.132 45.928 313.69 46.372 314.134 46.948C314.578 47.524 314.908 48.214 315.124 49.018C315.34 49.822 315.448 50.716 315.448 51.7C315.448 53.8 314.98 55.42 314.044 56.56C313.12 57.688 311.806 58.252 310.102 58.252C309.19 58.252 308.398 58.096 307.726 57.784C307.054 57.472 306.496 57.028 306.052 56.452C305.62 55.876 305.296 55.186 305.08 54.382C304.864 53.578 304.756 52.684 304.756 51.7ZM307.348 51.7C307.348 52.336 307.402 52.924 307.51 53.464C307.618 53.992 307.78 54.448 307.996 54.832C308.224 55.216 308.512 55.516 308.86 55.732C309.208 55.948 309.622 56.056 310.102 56.056C310.978 56.056 311.656 55.714 312.136 55.03C312.616 54.346 312.856 53.236 312.856 51.7C312.856 51.088 312.802 50.518 312.694 49.99C312.598 49.462 312.442 49 312.226 48.604C312.01 48.208 311.728 47.902 311.38 47.686C311.032 47.458 310.606 47.344 310.102 47.344C309.226 47.344 308.548 47.698 308.068 48.406C307.588 49.102 307.348 50.2 307.348 51.7ZM316.815 51.7C316.815 49.6 317.277 47.986 318.201 46.858C319.125 45.718 320.445 45.148 322.161 45.148C323.061 45.148 323.847 45.304 324.519 45.616C325.191 45.928 325.749 46.372 326.193 46.948C326.637 47.524 326.967 48.214 327.183 49.018C327.399 49.822 327.507 50.716 327.507 51.7C327.507 53.8 327.039 55.42 326.103 56.56C325.179 57.688 323.865 58.252 322.161 58.252C321.249 58.252 320.457 58.096 319.785 57.784C319.113 57.472 318.555 57.028 318.111 56.452C317.679 55.876 317.355 55.186 317.139 54.382C316.923 53.578 316.815 52.684 316.815 51.7ZM319.407 51.7C319.407 52.336 319.461 52.924 319.569 53.464C319.677 53.992 319.839 54.448 320.055 54.832C320.283 55.216 320.571 55.516 320.919 55.732C321.267 55.948 321.681 56.056 322.161 56.056C323.037 56.056 323.715 55.714 324.195 55.03C324.675 54.346 324.915 53.236 324.915 51.7C324.915 51.088 324.861 50.518 324.753 49.99C324.657 49.462 324.501 49 324.285 48.604C324.069 48.208 323.787 47.902 323.439 47.686C323.091 47.458 322.665 47.344 322.161 47.344C321.285 47.344 320.607 47.698 320.127 48.406C319.647 49.102 319.407 50.2 319.407 51.7ZM339.043 51.466L339.313 48.964H339.205L338.431 50.98L335.749 55.678H334.957L332.131 50.962L331.339 48.964H331.249L331.609 51.448V58H329.269V45.4H331.519L334.885 51.16L335.479 52.6H335.551L336.091 51.124L339.277 45.4H341.509V58H339.043V51.466Z" fill="#FF8E8E"/>
<path d="M671.08 94.526C671.356 94.478 671.65 94.436 671.962 94.4C672.286 94.352 672.604 94.316 672.916 94.292C673.24 94.268 673.552 94.25 673.852 94.238C674.152 94.226 674.428 94.22 674.68 94.22C675.268 94.22 675.844 94.274 676.408 94.382C676.984 94.49 677.494 94.676 677.938 94.94C678.394 95.204 678.754 95.57 679.018 96.038C679.294 96.494 679.432 97.07 679.432 97.766C679.432 98.798 679.192 99.638 678.712 100.286C678.232 100.934 677.59 101.384 676.786 101.636L677.668 102.194L680.548 107H677.704L674.842 102.068L673.546 101.834V107H671.08V94.526ZM674.86 96.416C674.608 96.416 674.356 96.422 674.104 96.434C673.864 96.446 673.678 96.47 673.546 96.506V100.16H674.59C675.274 100.16 675.82 100.004 676.228 99.692C676.636 99.38 676.84 98.864 676.84 98.144C676.84 97.604 676.672 97.184 676.336 96.884C676 96.572 675.508 96.416 674.86 96.416ZM680.914 100.7C680.914 98.6 681.376 96.986 682.3 95.858C683.224 94.718 684.544 94.148 686.26 94.148C687.16 94.148 687.946 94.304 688.618 94.616C689.29 94.928 689.848 95.372 690.292 95.948C690.736 96.524 691.066 97.214 691.282 98.018C691.498 98.822 691.606 99.716 691.606 100.7C691.606 102.8 691.138 104.42 690.202 105.56C689.278 106.688 687.964 107.252 686.26 107.252C685.348 107.252 684.556 107.096 683.884 106.784C683.212 106.472 682.654 106.028 682.21 105.452C681.778 104.876 681.454 104.186 681.238 103.382C681.022 102.578 680.914 101.684 680.914 100.7ZM683.506 100.7C683.506 101.336 683.56 101.924 683.668 102.464C683.776 102.992 683.938 103.448 684.154 103.832C684.382 104.216 684.67 104.516 685.018 104.732C685.366 104.948 685.78 105.056 686.26 105.056C687.136 105.056 687.814 104.714 688.294 104.03C688.774 103.346 689.014 102.236 689.014 100.7C689.014 100.088 688.96 99.518 688.852 98.99C688.756 98.462 688.6 98 688.384 97.604C688.168 97.208 687.886 96.902 687.538 96.686C687.19 96.458 686.764 96.344 686.26 96.344C685.384 96.344 684.706 96.698 684.226 97.406C683.746 98.102 683.506 99.2 683.506 100.7ZM692.973 100.7C692.973 98.6 693.435 96.986 694.359 95.858C695.283 94.718 696.603 94.148 698.319 94.148C699.219 94.148 700.005 94.304 700.677 94.616C701.349 94.928 701.907 95.372 702.351 95.948C702.795 96.524 703.125 97.214 703.341 98.018C703.557 98.822 703.665 99.716 703.665 100.7C703.665 102.8 703.197 104.42 702.261 105.56C701.337 106.688 700.023 107.252 698.319 107.252C697.407 107.252 696.615 107.096 695.943 106.784C695.271 106.472 694.713 106.028 694.269 105.452C693.837 104.876 693.513 104.186 693.297 103.382C693.081 102.578 692.973 101.684 692.973 100.7ZM695.565 100.7C695.565 101.336 695.619 101.924 695.727 102.464C695.835 102.992 695.997 103.448 696.213 103.832C696.441 104.216 696.729 104.516 697.077 104.732C697.425 104.948 697.839 105.056 698.319 105.056C699.195 105.056 699.873 104.714 700.353 104.03C700.833 103.346 701.073 102.236 701.073 100.7C701.073 100.088 701.019 99.518 700.911 98.99C700.815 98.462 700.659 98 700.443 97.604C700.227 97.208 699.945 96.902 699.597 96.686C699.249 96.458 698.823 96.344 698.319 96.344C697.443 96.344 696.765 96.698 696.285 97.406C695.805 98.102 695.565 99.2 695.565 100.7ZM715.202 100.466L715.472 97.964H715.364L714.59 99.98L711.908 104.678H711.116L708.29 99.962L707.498 97.964H707.408L707.768 100.448V107H705.428V94.4H707.678L711.044 100.16L711.638 101.6H711.71L712.25 100.124L715.436 94.4H717.668V107H715.202V100.466ZM725.115 105.02H727.617V97.91L727.887 96.686L727.023 97.748L725.421 98.846L724.431 97.496L728.535 94.184H729.849V105.02H732.297V107H725.115V105.02Z" fill="#2F5865"/>
<path d="M73.08 956.526C73.356 956.478 73.65 956.436 73.962 956.4C74.286 956.352 74.604 956.316 74.916 956.292C75.24 956.268 75.552 956.25 75.852 956.238C76.152 956.226 76.428 956.22 76.68 956.22C77.268 956.22 77.844 956.274 78.408 956.382C78.984 956.49 79.494 956.676 79.938 956.94C80.394 957.204 80.754 957.57 81.018 958.038C81.294 958.494 81.432 959.07 81.432 959.766C81.432 960.798 81.192 961.638 80.712 962.286C80.232 962.934 79.59 963.384 78.786 963.636L79.668 964.194L82.548 969H79.704L76.842 964.068L75.546 963.834V969H73.08V956.526ZM76.86 958.416C76.608 958.416 76.356 958.422 76.104 958.434C75.864 958.446 75.678 958.47 75.546 958.506V962.16H76.59C77.274 962.16 77.82 962.004 78.228 961.692C78.636 961.38 78.84 960.864 78.84 960.144C78.84 959.604 78.672 959.184 78.336 958.884C78 958.572 77.508 958.416 76.86 958.416ZM82.9145 962.7C82.9145 960.6 83.3765 958.986 84.3005 957.858C85.2245 956.718 86.5445 956.148 88.2605 956.148C89.1605 956.148 89.9465 956.304 90.6185 956.616C91.2905 956.928 91.8485 957.372 92.2925 957.948C92.7365 958.524 93.0665 959.214 93.2825 960.018C93.4985 960.822 93.6065 961.716 93.6065 962.7C93.6065 964.8 93.1385 966.42 92.2025 967.56C91.2785 968.688 89.9645 969.252 88.2605 969.252C87.3485 969.252 86.5565 969.096 85.8845 968.784C85.2125 968.472 84.6545 968.028 84.2105 967.452C83.7785 966.876 83.4545 966.186 83.2385 965.382C83.0225 964.578 82.9145 963.684 82.9145 962.7ZM85.5065 962.7C85.5065 963.336 85.5605 963.924 85.6685 964.464C85.7765 964.992 85.9385 965.448 86.1545 965.832C86.3825 966.216 86.6705 966.516 87.0185 966.732C87.3665 966.948 87.7805 967.056 88.2605 967.056C89.1365 967.056 89.8145 966.714 90.2945 966.03C90.7745 965.346 91.0145 964.236 91.0145 962.7C91.0145 962.088 90.9605 961.518 90.8525 960.99C90.7565 960.462 90.6005 960 90.3845 959.604C90.1685 959.208 89.8865 958.902 89.5385 958.686C89.1905 958.458 88.7645 958.344 88.2605 958.344C87.3845 958.344 86.7065 958.698 86.2265 959.406C85.7465 960.102 85.5065 961.2 85.5065 962.7ZM94.9731 962.7C94.9731 960.6 95.4351 958.986 96.3591 957.858C97.2831 956.718 98.6031 956.148 100.319 956.148C101.219 956.148 102.005 956.304 102.677 956.616C103.349 956.928 103.907 957.372 104.351 957.948C104.795 958.524 105.125 959.214 105.341 960.018C105.557 960.822 105.665 961.716 105.665 962.7C105.665 964.8 105.197 966.42 104.261 967.56C103.337 968.688 102.023 969.252 100.319 969.252C99.4071 969.252 98.6151 969.096 97.9431 968.784C97.2711 968.472 96.7131 968.028 96.2691 967.452C95.8371 966.876 95.5131 966.186 95.2971 965.382C95.0811 964.578 94.9731 963.684 94.9731 962.7ZM97.5651 962.7C97.5651 963.336 97.6191 963.924 97.7271 964.464C97.8351 964.992 97.9971 965.448 98.2131 965.832C98.4411 966.216 98.7291 966.516 99.0771 966.732C99.4251 966.948 99.8391 967.056 100.319 967.056C101.195 967.056 101.873 966.714 102.353 966.03C102.833 965.346 103.073 964.236 103.073 962.7C103.073 962.088 103.019 961.518 102.911 960.99C102.815 960.462 102.659 960 102.443 959.604C102.227 959.208 101.945 958.902 101.597 958.686C101.249 958.458 100.823 958.344 100.319 958.344C99.4431 958.344 98.7651 958.698 98.2851 959.406C97.8051 960.102 97.5651 961.2 97.5651 962.7ZM117.202 962.466L117.472 959.964H117.364L116.59 961.98L113.908 966.678H113.116L110.29 961.962L109.498 959.964H109.408L109.768 962.448V969H107.428V956.4H109.678L113.044 962.16L113.638 963.6H113.71L114.25 962.124L117.436 956.4H119.668V969H117.202V962.466ZM129.635 967.272C130.379 967.272 130.943 967.074 131.327 966.678C131.723 966.282 131.921 965.802 131.921 965.238C131.921 964.554 131.717 964.05 131.309 963.726C130.901 963.402 130.259 963.24 129.383 963.24H128.087V961.998L130.265 959.028L131.291 958.218L129.869 958.38H126.845V956.4H133.721V957.678L131.183 961.08L130.391 961.566V961.656L131.147 961.548C131.567 961.584 131.963 961.68 132.335 961.836C132.719 961.992 133.049 962.22 133.325 962.52C133.613 962.808 133.841 963.168 134.009 963.6C134.177 964.032 134.261 964.53 134.261 965.094C134.261 965.802 134.141 966.414 133.901 966.93C133.673 967.446 133.349 967.878 132.929 968.226C132.521 968.574 132.041 968.832 131.489 969C130.937 969.168 130.343 969.252 129.707 969.252C129.179 969.252 128.633 969.204 128.069 969.108C127.505 969.012 127.049 968.874 126.701 968.694L127.331 966.75C127.643 966.906 127.985 967.032 128.357 967.128C128.741 967.224 129.167 967.272 129.635 967.272Z" fill="#2F5865"/>
<path d="M73.08 758.526C73.356 758.478 73.65 758.436 73.962 758.4C74.286 758.352 74.604 758.316 74.916 758.292C75.24 758.268 75.552 758.25 75.852 758.238C76.152 758.226 76.428 758.22 76.68 758.22C77.268 758.22 77.844 758.274 78.408 758.382C78.984 758.49 79.494 758.676 79.938 758.94C80.394 759.204 80.754 759.57 81.018 760.038C81.294 760.494 81.432 761.07 81.432 761.766C81.432 762.798 81.192 763.638 80.712 764.286C80.232 764.934 79.59 765.384 78.786 765.636L79.668 766.194L82.548 771H79.704L76.842 766.068L75.546 765.834V771H73.08V758.526ZM76.86 760.416C76.608 760.416 76.356 760.422 76.104 760.434C75.864 760.446 75.678 760.47 75.546 760.506V764.16H76.59C77.274 764.16 77.82 764.004 78.228 763.692C78.636 763.38 78.84 762.864 78.84 762.144C78.84 761.604 78.672 761.184 78.336 760.884C78 760.572 77.508 760.416 76.86 760.416ZM82.9145 764.7C82.9145 762.6 83.3765 760.986 84.3005 759.858C85.2245 758.718 86.5445 758.148 88.2605 758.148C89.1605 758.148 89.9465 758.304 90.6185 758.616C91.2905 758.928 91.8485 759.372 92.2925 759.948C92.7365 760.524 93.0665 761.214 93.2825 762.018C93.4985 762.822 93.6065 763.716 93.6065 764.7C93.6065 766.8 93.1385 768.42 92.2025 769.56C91.2785 770.688 89.9645 771.252 88.2605 771.252C87.3485 771.252 86.5565 771.096 85.8845 770.784C85.2125 770.472 84.6545 770.028 84.2105 769.452C83.7785 768.876 83.4545 768.186 83.2385 767.382C83.0225 766.578 82.9145 765.684 82.9145 764.7ZM85.5065 764.7C85.5065 765.336 85.5605 765.924 85.6685 766.464C85.7765 766.992 85.9385 767.448 86.1545 767.832C86.3825 768.216 86.6705 768.516 87.0185 768.732C87.3665 768.948 87.7805 769.056 88.2605 769.056C89.1365 769.056 89.8145 768.714 90.2945 768.03C90.7745 767.346 91.0145 766.236 91.0145 764.7C91.0145 764.088 90.9605 763.518 90.8525 762.99C90.7565 762.462 90.6005 762 90.3845 761.604C90.1685 761.208 89.8865 760.902 89.5385 760.686C89.1905 760.458 88.7645 760.344 88.2605 760.344C87.3845 760.344 86.7065 760.698 86.2265 761.406C85.7465 762.102 85.5065 763.2 85.5065 764.7ZM94.9731 764.7C94.9731 762.6 95.4351 760.986 96.3591 759.858C97.2831 758.718 98.6031 758.148 100.319 758.148C101.219 758.148 102.005 758.304 102.677 758.616C103.349 758.928 103.907 759.372 104.351 759.948C104.795 760.524 105.125 761.214 105.341 762.018C105.557 762.822 105.665 763.716 105.665 764.7C105.665 766.8 105.197 768.42 104.261 769.56C103.337 770.688 102.023 771.252 100.319 771.252C99.4071 771.252 98.6151 771.096 97.9431 770.784C97.2711 770.472 96.7131 770.028 96.2691 769.452C95.8371 768.876 95.5131 768.186 95.2971 767.382C95.0811 766.578 94.9731 765.684 94.9731 764.7ZM97.5651 764.7C97.5651 765.336 97.6191 765.924 97.7271 766.464C97.8351 766.992 97.9971 767.448 98.2131 767.832C98.4411 768.216 98.7291 768.516 99.0771 768.732C99.4251 768.948 99.8391 769.056 100.319 769.056C101.195 769.056 101.873 768.714 102.353 768.03C102.833 767.346 103.073 766.236 103.073 764.7C103.073 764.088 103.019 763.518 102.911 762.99C102.815 762.462 102.659 762 102.443 761.604C102.227 761.208 101.945 760.902 101.597 760.686C101.249 760.458 100.823 760.344 100.319 760.344C99.4431 760.344 98.7651 760.698 98.2851 761.406C97.8051 762.102 97.5651 763.2 97.5651 764.7ZM117.202 764.466L117.472 761.964H117.364L116.59 763.98L113.908 768.678H113.116L110.29 763.962L109.498 761.964H109.408L109.768 764.448V771H107.428V758.4H109.678L113.044 764.16L113.638 765.6H113.71L114.25 764.124L117.436 758.4H119.668V771H117.202V764.466ZM133.847 761.478C133.847 762.09 133.733 762.708 133.505 763.332C133.289 763.956 133.007 764.568 132.659 765.168C132.323 765.768 131.945 766.35 131.525 766.914C131.117 767.466 130.715 767.976 130.319 768.444L129.365 769.182V769.272L130.661 769.02H134.117V771H126.539V769.794C126.827 769.494 127.151 769.146 127.511 768.75C127.871 768.342 128.231 767.916 128.591 767.472C128.963 767.016 129.323 766.548 129.671 766.068C130.019 765.588 130.331 765.108 130.607 764.628C130.883 764.136 131.099 763.662 131.255 763.206C131.423 762.75 131.507 762.318 131.507 761.91C131.507 761.418 131.363 761.016 131.075 760.704C130.799 760.38 130.355 760.218 129.743 760.218C129.359 760.218 128.963 760.302 128.555 760.47C128.159 760.626 127.823 760.83 127.547 761.082L126.611 759.426C127.079 759.042 127.607 758.736 128.195 758.508C128.795 758.268 129.497 758.148 130.301 758.148C130.817 758.148 131.291 758.22 131.723 758.364C132.155 758.508 132.527 758.718 132.839 758.994C133.151 759.27 133.397 759.618 133.577 760.038C133.757 760.446 133.847 760.926 133.847 761.478Z" fill="#2F5865"/>
<path d="M463.356 838.438L463.59 840.67H463.662L463.914 838.402L466.11 831.4H467.73L469.89 838.438L470.142 840.67H470.214L470.484 838.402L472.014 831.4H474.516L471.042 844.09H469.386L467.136 837.088L466.83 835.162H466.74L466.434 837.106L464.202 844.09H462.456L459 831.4H461.682L463.356 838.438ZM474.696 837.7C474.696 835.6 475.158 833.986 476.082 832.858C477.006 831.718 478.326 831.148 480.042 831.148C480.942 831.148 481.728 831.304 482.4 831.616C483.072 831.928 483.63 832.372 484.074 832.948C484.518 833.524 484.848 834.214 485.064 835.018C485.28 835.822 485.388 836.716 485.388 837.7C485.388 839.8 484.92 841.42 483.984 842.56C483.06 843.688 481.746 844.252 480.042 844.252C479.13 844.252 478.338 844.096 477.666 843.784C476.994 843.472 476.436 843.028 475.992 842.452C475.56 841.876 475.236 841.186 475.02 840.382C474.804 839.578 474.696 838.684 474.696 837.7ZM477.288 837.7C477.288 838.336 477.342 838.924 477.45 839.464C477.558 839.992 477.72 840.448 477.936 840.832C478.164 841.216 478.452 841.516 478.8 841.732C479.148 841.948 479.562 842.056 480.042 842.056C480.918 842.056 481.596 841.714 482.076 841.03C482.556 840.346 482.796 839.236 482.796 837.7C482.796 837.088 482.742 836.518 482.634 835.99C482.538 835.462 482.382 835 482.166 834.604C481.95 834.208 481.668 833.902 481.32 833.686C480.972 833.458 480.546 833.344 480.042 833.344C479.166 833.344 478.488 833.698 478.008 834.406C477.528 835.102 477.288 836.2 477.288 837.7ZM487.15 831.526C487.426 831.478 487.72 831.436 488.032 831.4C488.356 831.352 488.674 831.316 488.986 831.292C489.31 831.268 489.622 831.25 489.922 831.238C490.222 831.226 490.498 831.22 490.75 831.22C491.338 831.22 491.914 831.274 492.478 831.382C493.054 831.49 493.564 831.676 494.008 831.94C494.464 832.204 494.824 832.57 495.088 833.038C495.364 833.494 495.502 834.07 495.502 834.766C495.502 835.798 495.262 836.638 494.782 837.286C494.302 837.934 493.66 838.384 492.856 838.636L493.738 839.194L496.618 844H493.774L490.912 839.068L489.616 838.834V844H487.15V831.526ZM490.93 833.416C490.678 833.416 490.426 833.422 490.174 833.434C489.934 833.446 489.748 833.47 489.616 833.506V837.16H490.66C491.344 837.16 491.89 837.004 492.298 836.692C492.706 836.38 492.91 835.864 492.91 835.144C492.91 834.604 492.742 834.184 492.406 833.884C492.07 833.572 491.578 833.416 490.93 833.416ZM501.092 838.618H500.444V844H497.978V831.4H500.444V836.98L501.02 836.728L504.494 831.4H507.302L503.63 836.692L502.658 837.376L503.666 838.078L507.86 844H504.818L501.092 838.618ZM509.393 831.4H511.859V844H509.393V831.4ZM517.405 837.43L516.415 835.45H516.325L516.613 837.43V844H514.273V831.31H516.073L520.843 838.024L521.797 839.95H521.887L521.599 838.024V831.4H523.939V844.09H522.139L517.405 837.43ZM530.549 837.43H535.247V843.046C534.743 843.466 534.137 843.772 533.429 843.964C532.733 844.156 532.043 844.252 531.359 844.252C530.555 844.252 529.805 844.126 529.109 843.874C528.425 843.622 527.831 843.232 527.327 842.704C526.823 842.164 526.427 841.48 526.139 840.652C525.851 839.824 525.707 838.84 525.707 837.7C525.707 836.512 525.875 835.504 526.211 834.676C526.559 833.836 527.009 833.158 527.561 832.642C528.125 832.114 528.755 831.736 529.451 831.508C530.147 831.268 530.855 831.148 531.575 831.148C532.295 831.148 532.925 831.202 533.465 831.31C534.017 831.418 534.455 831.532 534.779 831.652L534.275 833.722C533.975 833.602 533.639 833.512 533.267 833.452C532.895 833.38 532.421 833.344 531.845 833.344C531.329 833.344 530.855 833.422 530.423 833.578C529.991 833.734 529.613 833.992 529.289 834.352C528.977 834.7 528.731 835.15 528.551 835.702C528.383 836.254 528.299 836.926 528.299 837.718C528.299 838.474 528.383 839.128 528.551 839.68C528.719 840.22 528.953 840.67 529.253 841.03C529.553 841.378 529.901 841.636 530.297 841.804C530.705 841.972 531.137 842.056 531.593 842.056C531.905 842.056 532.211 842.02 532.511 841.948C532.811 841.864 533.063 841.744 533.267 841.588V839.212L530.549 838.924V837.43ZM547.114 841.21H543.244L542.29 844H539.824L544.36 831.31H546.178L550.714 844H548.122L547.114 841.21ZM543.874 839.23H546.574L545.638 836.422L545.26 834.442H545.17L544.792 836.44L543.874 839.23ZM551.803 831.526C552.079 831.478 552.373 831.436 552.685 831.4C553.009 831.352 553.327 831.316 553.639 831.292C553.963 831.268 554.275 831.25 554.575 831.238C554.875 831.226 555.151 831.22 555.403 831.22C555.991 831.22 556.567 831.274 557.131 831.382C557.707 831.49 558.217 831.676 558.661 831.94C559.117 832.204 559.477 832.57 559.741 833.038C560.017 833.494 560.155 834.07 560.155 834.766C560.155 835.798 559.915 836.638 559.435 837.286C558.955 837.934 558.313 838.384 557.509 838.636L558.391 839.194L561.271 844H558.427L555.565 839.068L554.269 838.834V844H551.803V831.526ZM555.583 833.416C555.331 833.416 555.079 833.422 554.827 833.434C554.587 833.446 554.401 833.47 554.269 833.506V837.16H555.313C555.997 837.16 556.543 837.004 556.951 836.692C557.359 836.38 557.563 835.864 557.563 835.144C557.563 834.604 557.395 834.184 557.059 833.884C556.723 833.572 556.231 833.416 555.583 833.416ZM562.631 831.4H570.101V833.596H565.097V836.53H569.651V838.726H565.097V841.804H570.191V844H562.631V831.4ZM578.245 841.21H574.375L573.421 844H570.955L575.491 831.31H577.309L581.845 844H579.253L578.245 841.21ZM575.005 839.23H577.705L576.769 836.422L576.391 834.442H576.301L575.923 836.44L575.005 839.23Z" fill="#2F5865"/>
<rect x="234" y="657" width="82" height="22" rx="11" fill="#CDEBF5"/>
<rect x="238" y="458" width="78" height="22" rx="11" fill="#CDEBF5"/>
<rect x="598" y="658" width="86" height="22" rx="11" fill="#CDEBF5"/>
<path d="M253.026 663.596H249.354V674H246.888V663.596H243.198V661.4H253.026V663.596ZM259.114 671.21H255.244L254.29 674H251.824L256.36 661.31H258.178L262.714 674H260.122L259.114 671.21ZM255.874 669.23H258.574L257.638 666.422L257.26 664.442H257.17L256.792 666.44L255.874 669.23ZM272.281 664.334C272.281 664.646 272.239 664.958 272.155 665.27C272.083 665.582 271.957 665.87 271.777 666.134C271.597 666.386 271.363 666.614 271.075 666.818C270.787 667.01 270.439 667.154 270.031 667.25V667.358C270.391 667.418 270.733 667.52 271.057 667.664C271.381 667.808 271.663 668.006 271.903 668.258C272.143 668.51 272.329 668.816 272.461 669.176C272.605 669.536 272.677 669.962 272.677 670.454C272.677 671.102 272.539 671.666 272.263 672.146C271.987 672.614 271.615 672.998 271.147 673.298C270.691 673.598 270.169 673.82 269.581 673.964C268.993 674.108 268.387 674.18 267.763 674.18C267.559 674.18 267.295 674.18 266.971 674.18C266.659 674.18 266.317 674.168 265.945 674.144C265.585 674.132 265.213 674.108 264.829 674.072C264.457 674.036 264.115 673.982 263.803 673.91V661.49C264.031 661.454 264.289 661.418 264.577 661.382C264.877 661.346 265.195 661.316 265.531 661.292C265.867 661.268 266.209 661.25 266.557 661.238C266.917 661.226 267.271 661.22 267.619 661.22C268.207 661.22 268.777 661.268 269.329 661.364C269.893 661.448 270.391 661.604 270.823 661.832C271.267 662.06 271.621 662.378 271.885 662.786C272.149 663.194 272.281 663.71 272.281 664.334ZM267.781 672.146C268.081 672.146 268.369 672.11 268.645 672.038C268.933 671.966 269.185 671.858 269.401 671.714C269.617 671.558 269.791 671.366 269.923 671.138C270.055 670.91 270.121 670.64 270.121 670.328C270.121 669.932 270.043 669.62 269.887 669.392C269.731 669.164 269.527 668.99 269.275 668.87C269.023 668.738 268.741 668.654 268.429 668.618C268.117 668.582 267.805 668.564 267.493 668.564H266.179V672.038C266.239 672.062 266.335 672.08 266.467 672.092C266.599 672.104 266.737 672.116 266.881 672.128C267.037 672.128 267.193 672.134 267.349 672.146C267.517 672.146 267.661 672.146 267.781 672.146ZM266.971 666.692C267.139 666.692 267.331 666.686 267.547 666.674C267.775 666.662 267.961 666.644 268.105 666.62C268.561 666.476 268.951 666.26 269.275 665.972C269.611 665.684 269.779 665.306 269.779 664.838C269.779 664.526 269.719 664.268 269.599 664.064C269.479 663.86 269.317 663.698 269.113 663.578C268.921 663.458 268.699 663.374 268.447 663.326C268.195 663.278 267.931 663.254 267.655 663.254C267.343 663.254 267.055 663.26 266.791 663.272C266.527 663.284 266.323 663.302 266.179 663.326V666.692H266.971ZM282.411 674H274.437V661.4H276.903V671.804H282.411V674ZM283.684 661.4H291.154V663.596H286.15V666.53H290.704V668.726H286.15V671.804H291.244V674H283.684V661.4ZM298.379 672.02H300.881V664.91L301.151 663.686L300.287 664.748L298.685 665.846L297.695 664.496L301.799 661.184H303.113V672.02H305.561V674H298.379V672.02Z" fill="#2F5865"/>
<path d="M256.026 464.596H252.354V475H249.888V464.596H246.198V462.4H256.026V464.596ZM262.114 472.21H258.244L257.29 475H254.824L259.36 462.31H261.178L265.714 475H263.122L262.114 472.21ZM258.874 470.23H261.574L260.638 467.422L260.26 465.442H260.17L259.792 467.44L258.874 470.23ZM275.281 465.334C275.281 465.646 275.239 465.958 275.155 466.27C275.083 466.582 274.957 466.87 274.777 467.134C274.597 467.386 274.363 467.614 274.075 467.818C273.787 468.01 273.439 468.154 273.031 468.25V468.358C273.391 468.418 273.733 468.52 274.057 468.664C274.381 468.808 274.663 469.006 274.903 469.258C275.143 469.51 275.329 469.816 275.461 470.176C275.605 470.536 275.677 470.962 275.677 471.454C275.677 472.102 275.539 472.666 275.263 473.146C274.987 473.614 274.615 473.998 274.147 474.298C273.691 474.598 273.169 474.82 272.581 474.964C271.993 475.108 271.387 475.18 270.763 475.18C270.559 475.18 270.295 475.18 269.971 475.18C269.659 475.18 269.317 475.168 268.945 475.144C268.585 475.132 268.213 475.108 267.829 475.072C267.457 475.036 267.115 474.982 266.803 474.91V462.49C267.031 462.454 267.289 462.418 267.577 462.382C267.877 462.346 268.195 462.316 268.531 462.292C268.867 462.268 269.209 462.25 269.557 462.238C269.917 462.226 270.271 462.22 270.619 462.22C271.207 462.22 271.777 462.268 272.329 462.364C272.893 462.448 273.391 462.604 273.823 462.832C274.267 463.06 274.621 463.378 274.885 463.786C275.149 464.194 275.281 464.71 275.281 465.334ZM270.781 473.146C271.081 473.146 271.369 473.11 271.645 473.038C271.933 472.966 272.185 472.858 272.401 472.714C272.617 472.558 272.791 472.366 272.923 472.138C273.055 471.91 273.121 471.64 273.121 471.328C273.121 470.932 273.043 470.62 272.887 470.392C272.731 470.164 272.527 469.99 272.275 469.87C272.023 469.738 271.741 469.654 271.429 469.618C271.117 469.582 270.805 469.564 270.493 469.564H269.179V473.038C269.239 473.062 269.335 473.08 269.467 473.092C269.599 473.104 269.737 473.116 269.881 473.128C270.037 473.128 270.193 473.134 270.349 473.146C270.517 473.146 270.661 473.146 270.781 473.146ZM269.971 467.692C270.139 467.692 270.331 467.686 270.547 467.674C270.775 467.662 270.961 467.644 271.105 467.62C271.561 467.476 271.951 467.26 272.275 466.972C272.611 466.684 272.779 466.306 272.779 465.838C272.779 465.526 272.719 465.268 272.599 465.064C272.479 464.86 272.317 464.698 272.113 464.578C271.921 464.458 271.699 464.374 271.447 464.326C271.195 464.278 270.931 464.254 270.655 464.254C270.343 464.254 270.055 464.26 269.791 464.272C269.527 464.284 269.323 464.302 269.179 464.326V467.692H269.971ZM285.411 475H277.437V462.4H279.903V472.804H285.411V475ZM286.684 462.4H294.154V464.596H289.15V467.53H293.704V469.726H289.15V472.804H294.244V475H286.684V462.4ZM308.111 465.478C308.111 466.09 307.997 466.708 307.769 467.332C307.553 467.956 307.271 468.568 306.923 469.168C306.587 469.768 306.209 470.35 305.789 470.914C305.381 471.466 304.979 471.976 304.583 472.444L303.629 473.182V473.272L304.925 473.02H308.381V475H300.803V473.794C301.091 473.494 301.415 473.146 301.775 472.75C302.135 472.342 302.495 471.916 302.855 471.472C303.227 471.016 303.587 470.548 303.935 470.068C304.283 469.588 304.595 469.108 304.871 468.628C305.147 468.136 305.363 467.662 305.519 467.206C305.687 466.75 305.771 466.318 305.771 465.91C305.771 465.418 305.627 465.016 305.339 464.704C305.063 464.38 304.619 464.218 304.007 464.218C303.623 464.218 303.227 464.302 302.819 464.47C302.423 464.626 302.087 464.83 301.811 465.082L300.875 463.426C301.343 463.042 301.871 462.736 302.459 462.508C303.059 462.268 303.761 462.148 304.565 462.148C305.081 462.148 305.555 462.22 305.987 462.364C306.419 462.508 306.791 462.718 307.103 462.994C307.415 463.27 307.661 463.618 307.841 464.038C308.021 464.446 308.111 464.926 308.111 465.478Z" fill="#2F5865"/>
<path d="M618.026 664.596H614.354V675H611.888V664.596H608.198V662.4H618.026V664.596ZM624.114 672.21H620.244L619.29 675H616.824L621.36 662.31H623.178L627.714 675H625.122L624.114 672.21ZM620.874 670.23H623.574L622.638 667.422L622.26 665.442H622.17L621.792 667.44L620.874 670.23ZM637.281 665.334C637.281 665.646 637.239 665.958 637.155 666.27C637.083 666.582 636.957 666.87 636.777 667.134C636.597 667.386 636.363 667.614 636.075 667.818C635.787 668.01 635.439 668.154 635.031 668.25V668.358C635.391 668.418 635.733 668.52 636.057 668.664C636.381 668.808 636.663 669.006 636.903 669.258C637.143 669.51 637.329 669.816 637.461 670.176C637.605 670.536 637.677 670.962 637.677 671.454C637.677 672.102 637.539 672.666 637.263 673.146C636.987 673.614 636.615 673.998 636.147 674.298C635.691 674.598 635.169 674.82 634.581 674.964C633.993 675.108 633.387 675.18 632.763 675.18C632.559 675.18 632.295 675.18 631.971 675.18C631.659 675.18 631.317 675.168 630.945 675.144C630.585 675.132 630.213 675.108 629.829 675.072C629.457 675.036 629.115 674.982 628.803 674.91V662.49C629.031 662.454 629.289 662.418 629.577 662.382C629.877 662.346 630.195 662.316 630.531 662.292C630.867 662.268 631.209 662.25 631.557 662.238C631.917 662.226 632.271 662.22 632.619 662.22C633.207 662.22 633.777 662.268 634.329 662.364C634.893 662.448 635.391 662.604 635.823 662.832C636.267 663.06 636.621 663.378 636.885 663.786C637.149 664.194 637.281 664.71 637.281 665.334ZM632.781 673.146C633.081 673.146 633.369 673.11 633.645 673.038C633.933 672.966 634.185 672.858 634.401 672.714C634.617 672.558 634.791 672.366 634.923 672.138C635.055 671.91 635.121 671.64 635.121 671.328C635.121 670.932 635.043 670.62 634.887 670.392C634.731 670.164 634.527 669.99 634.275 669.87C634.023 669.738 633.741 669.654 633.429 669.618C633.117 669.582 632.805 669.564 632.493 669.564H631.179V673.038C631.239 673.062 631.335 673.08 631.467 673.092C631.599 673.104 631.737 673.116 631.881 673.128C632.037 673.128 632.193 673.134 632.349 673.146C632.517 673.146 632.661 673.146 632.781 673.146ZM631.971 667.692C632.139 667.692 632.331 667.686 632.547 667.674C632.775 667.662 632.961 667.644 633.105 667.62C633.561 667.476 633.951 667.26 634.275 666.972C634.611 666.684 634.779 666.306 634.779 665.838C634.779 665.526 634.719 665.268 634.599 665.064C634.479 664.86 634.317 664.698 634.113 664.578C633.921 664.458 633.699 664.374 633.447 664.326C633.195 664.278 632.931 664.254 632.655 664.254C632.343 664.254 632.055 664.26 631.791 664.272C631.527 664.284 631.323 664.302 631.179 664.326V667.692H631.971ZM647.411 675H639.437V662.4H641.903V672.804H647.411V675ZM648.684 662.4H656.154V664.596H651.15V667.53H655.704V669.726H651.15V672.804H656.244V675H648.684V662.4ZM665.899 673.272C666.643 673.272 667.207 673.074 667.591 672.678C667.987 672.282 668.185 671.802 668.185 671.238C668.185 670.554 667.981 670.05 667.573 669.726C667.165 669.402 666.523 669.24 665.647 669.24H664.351V667.998L666.529 665.028L667.555 664.218L666.133 664.38H663.109V662.4H669.985V663.678L667.447 667.08L666.655 667.566V667.656L667.411 667.548C667.831 667.584 668.227 667.68 668.599 667.836C668.983 667.992 669.313 668.22 669.589 668.52C669.877 668.808 670.105 669.168 670.273 669.6C670.441 670.032 670.525 670.53 670.525 671.094C670.525 671.802 670.405 672.414 670.165 672.93C669.937 673.446 669.613 673.878 669.193 674.226C668.785 674.574 668.305 674.832 667.753 675C667.201 675.168 666.607 675.252 665.971 675.252C665.443 675.252 664.897 675.204 664.333 675.108C663.769 675.012 663.313 674.874 662.965 674.694L663.595 672.75C663.907 672.906 664.249 673.032 664.621 673.128C665.005 673.224 665.431 673.272 665.899 673.272Z" fill="#2F5865"/>
<path d="M296.92 998.07C296.877 995.792 300.357 997.653 300.474 1002C300.59 1006.34 300.59 1006.34 300.288 1008.41C299.986 1010.47 298.059 1012.34 297.282 1011C296.082 1008.93 297.009 1002.83 296.92 998.07Z" fill="#ADC5CF"/>
<path d="M260.933 998.07C260.976 995.792 257.496 997.653 257.379 1002C257.263 1006.34 257.263 1006.34 257.565 1008.41C257.867 1010.47 259.794 1012.34 260.571 1011C261.771 1008.93 260.844 1002.83 260.933 998.07Z" fill="#ADC5CF"/>
<path d="M272.772 996.034C282.535 993.355 298.24 998.264 294.917 1008.48C292.584 1015.66 290.149 1020.83 283.794 1023.46C274.272 1027.41 265.753 1021.88 262.973 1008.98C261.663 1002.89 265.981 997.898 272.772 996.034Z" fill="#ADC5CF"/>
<path d="M593.919 997.312C593.876 995.033 597.357 996.895 597.473 1001.24C597.59 1005.59 597.589 1005.59 597.287 1007.65C596.986 1009.72 595.059 1011.58 594.281 1010.24C593.082 1008.17 594.009 1002.07 593.919 997.312Z" fill="#ADC5CF"/>
<path d="M557.933 997.312C557.976 995.033 554.495 996.894 554.379 1001.24C554.262 1005.58 554.263 1005.58 554.565 1007.65C554.867 1009.72 556.793 1011.58 557.571 1010.24C558.77 1008.17 557.843 1002.07 557.933 997.312Z" fill="#ADC5CF"/>
<path d="M569.772 995.276C579.535 992.596 595.239 997.505 591.916 1007.72C589.584 1014.9 587.149 1020.07 580.794 1022.7C571.272 1026.65 562.753 1021.12 559.973 1008.22C558.663 1002.14 562.98 997.14 569.772 995.276Z" fill="#ADC5CF"/>
<path d="M593.919 798.312C593.876 796.033 597.357 797.895 597.473 802.24C597.59 806.585 597.589 806.585 597.287 808.651C596.986 810.716 595.059 812.582 594.281 811.241C593.082 809.172 594.009 803.074 593.919 798.312Z" fill="#ADC5CF"/>
<path d="M557.933 798.312C557.976 796.033 554.495 797.894 554.379 802.24C554.262 806.585 554.263 806.585 554.565 808.65C554.867 810.716 556.793 812.582 557.571 811.241C558.77 809.172 557.843 803.074 557.933 798.312Z" fill="#ADC5CF"/>
<path d="M569.772 796.276C579.535 793.596 595.239 798.505 591.916 808.725C589.584 815.898 587.149 821.073 580.794 823.704C571.272 827.648 562.753 822.125 559.973 809.219C558.663 803.137 562.98 798.14 569.772 796.276Z" fill="#ADC5CF"/>
<path d="M298.919 798.312C298.876 796.033 302.357 797.895 302.473 802.24C302.59 806.585 302.589 806.585 302.287 808.651C301.986 810.716 300.059 812.582 299.281 811.241C298.082 809.172 299.009 803.074 298.919 798.312Z" fill="#ADC5CF"/>
<path d="M262.933 798.312C262.976 796.033 259.495 797.894 259.379 802.24C259.262 806.585 259.263 806.585 259.565 808.65C259.867 810.716 261.793 812.582 262.571 811.241C263.77 809.172 262.843 803.074 262.933 798.312Z" fill="#ADC5CF"/>
<path d="M274.772 796.276C284.535 793.596 300.239 798.505 296.916 808.725C294.584 815.898 292.149 821.073 285.794 823.704C276.272 827.648 267.753 822.125 264.973 809.219C263.663 803.137 267.98 798.14 274.772 796.276Z" fill="#ADC5CF"/>
<path d="M295.86 1080.45C295.817 1082.73 299.297 1080.87 299.414 1076.52C299.53 1072.18 299.53 1072.18 299.228 1070.11C298.926 1068.05 296.999 1066.18 296.222 1067.52C295.022 1069.59 295.949 1075.69 295.86 1080.45Z" fill="#ADC5CF"/>
<path d="M259.873 1080.45C259.916 1082.73 256.436 1080.87 256.319 1076.52C256.203 1072.18 256.203 1072.18 256.505 1070.11C256.807 1068.05 258.734 1066.18 259.511 1067.52C260.711 1069.59 259.784 1075.69 259.873 1080.45Z" fill="#ADC5CF"/>
<path d="M271.712 1082.49C281.475 1085.17 297.18 1080.26 293.856 1070.04C291.524 1062.87 289.089 1057.69 282.734 1055.06C273.212 1051.12 264.693 1056.64 261.913 1069.55C260.603 1075.63 264.921 1080.62 271.712 1082.49Z" fill="#ADC5CF"/>
<path d="M592.86 1079.69C592.817 1081.97 596.297 1080.11 596.414 1075.77C596.53 1071.42 596.53 1071.42 596.228 1069.36C595.926 1067.29 593.999 1065.42 593.222 1066.77C592.022 1068.83 592.949 1074.93 592.86 1079.69Z" fill="#ADC5CF"/>
<path d="M556.873 1079.69C556.916 1081.97 553.436 1080.11 553.319 1075.77C553.203 1071.42 553.203 1071.42 553.505 1069.36C553.807 1067.29 555.734 1065.42 556.511 1066.77C557.711 1068.83 556.784 1074.93 556.873 1079.69Z" fill="#ADC5CF"/>
<path d="M568.712 1081.73C578.475 1084.41 594.18 1079.5 590.856 1069.28C588.524 1062.11 586.089 1056.93 579.734 1054.3C570.212 1050.36 561.693 1055.88 558.913 1068.79C557.603 1074.87 561.921 1079.87 568.712 1081.73Z" fill="#ADC5CF"/>
<path d="M592.86 880.694C592.817 882.973 596.297 881.111 596.414 876.766C596.53 872.421 596.53 872.421 596.228 870.356C595.926 868.29 593.999 866.424 593.222 867.765C592.022 869.834 592.949 875.932 592.86 880.694Z" fill="#ADC5CF"/>
<path d="M556.873 880.694C556.916 882.973 553.436 881.112 553.319 876.766C553.203 872.421 553.203 872.421 553.505 870.356C553.807 868.29 555.734 866.424 556.511 867.766C557.711 869.834 556.784 875.932 556.873 880.694Z" fill="#ADC5CF"/>
<path d="M568.712 882.73C578.475 885.41 594.18 880.501 590.856 870.281C588.524 863.108 586.089 857.933 579.734 855.302C570.212 851.359 561.693 856.881 558.913 869.788C557.603 875.87 561.921 880.866 568.712 882.73Z" fill="#ADC5CF"/>
<path d="M297.86 880.694C297.817 882.973 301.297 881.111 301.414 876.766C301.53 872.421 301.53 872.421 301.228 870.356C300.926 868.29 298.999 866.424 298.222 867.765C297.022 869.834 297.949 875.932 297.86 880.694Z" fill="#ADC5CF"/>
<path d="M261.873 880.694C261.916 882.973 258.436 881.112 258.319 876.766C258.203 872.421 258.203 872.421 258.505 870.356C258.807 868.29 260.734 866.424 261.511 867.766C262.711 869.834 261.784 875.932 261.873 880.694Z" fill="#ADC5CF"/>
<path d="M273.712 882.73C283.475 885.41 299.18 880.501 295.856 870.281C293.524 863.108 291.089 857.933 284.734 855.302C275.212 851.359 266.693 856.881 263.913 869.788C262.603 875.87 266.921 880.866 273.712 882.73Z" fill="#ADC5CF"/>
<path d="M342.86 998.312C342.817 996.033 346.297 997.895 346.414 1002.24C346.53 1006.59 346.53 1006.59 346.228 1008.65C345.926 1010.72 343.999 1012.58 343.222 1011.24C342.022 1009.17 342.949 1003.07 342.86 998.312Z" fill="#ADC5CF"/>
<path d="M306.873 998.312C306.916 996.033 303.436 997.894 303.319 1002.24C303.203 1006.58 303.203 1006.58 303.505 1008.65C303.807 1010.72 305.734 1012.58 306.511 1011.24C307.711 1009.17 306.784 1003.07 306.873 998.312Z" fill="#ADC5CF"/>
<path d="M318.712 996.276C328.475 993.596 344.18 998.505 340.856 1008.72C338.524 1015.9 336.089 1021.07 329.734 1023.7C320.212 1027.65 311.693 1022.12 308.913 1009.22C307.603 1003.14 311.921 998.14 318.712 996.276Z" fill="#ADC5CF"/>
<path d="M639.86 997.554C639.817 995.275 643.297 997.136 643.414 1001.48C643.53 1005.83 643.53 1005.83 643.228 1007.89C642.926 1009.96 640.999 1011.82 640.222 1010.48C639.022 1008.41 639.949 1002.32 639.86 997.554Z" fill="#ADC5CF"/>
<path d="M603.873 997.553C603.916 995.275 600.436 997.136 600.319 1001.48C600.203 1005.83 600.203 1005.83 600.505 1007.89C600.807 1009.96 602.734 1011.82 603.511 1010.48C604.711 1008.41 603.784 1002.32 603.873 997.553Z" fill="#ADC5CF"/>
<path d="M615.712 995.518C625.475 992.838 641.18 997.747 637.856 1007.97C635.524 1015.14 633.089 1020.31 626.734 1022.95C617.212 1026.89 608.693 1021.37 605.913 1008.46C604.603 1002.38 608.921 997.382 615.712 995.518Z" fill="#ADC5CF"/>
<path d="M639.86 798.554C639.817 796.275 643.297 798.136 643.414 802.481C643.53 806.827 643.53 806.827 643.228 808.892C642.926 810.958 640.999 812.823 640.222 811.482C639.022 809.413 639.949 803.316 639.86 798.554Z" fill="#ADC5CF"/>
<path d="M603.873 798.553C603.916 796.275 600.436 798.136 600.319 802.481C600.203 806.827 600.203 806.827 600.505 808.892C600.807 810.958 602.734 812.823 603.511 811.482C604.711 809.413 603.784 803.316 603.873 798.553Z" fill="#ADC5CF"/>
<path d="M615.712 796.518C625.475 793.838 641.18 798.747 637.856 808.966C635.524 816.139 633.089 821.314 626.734 823.946C617.212 827.889 608.693 822.366 605.913 809.46C604.603 803.378 608.921 798.382 615.712 796.518Z" fill="#ADC5CF"/>
<path d="M344.86 798.554C344.817 796.275 348.297 798.136 348.414 802.481C348.53 806.827 348.53 806.827 348.228 808.892C347.926 810.958 345.999 812.823 345.222 811.482C344.022 809.413 344.949 803.316 344.86 798.554Z" fill="#ADC5CF"/>
<path d="M308.873 798.553C308.916 796.275 305.436 798.136 305.319 802.481C305.203 806.827 305.203 806.827 305.505 808.892C305.807 810.958 307.734 812.823 308.511 811.482C309.711 809.413 308.784 803.316 308.873 798.553Z" fill="#ADC5CF"/>
<path d="M320.712 796.518C330.475 793.838 346.18 798.747 342.856 808.966C340.524 816.139 338.089 821.314 331.734 823.946C322.212 827.889 313.693 822.366 310.913 809.46C309.603 803.378 313.921 798.382 320.712 796.518Z" fill="#ADC5CF"/>
<path d="M341.799 1080.21C341.756 1082.49 345.237 1080.63 345.353 1076.28C345.47 1071.94 345.469 1071.94 345.167 1069.87C344.865 1067.81 342.939 1065.94 342.161 1067.28C340.962 1069.35 341.889 1075.45 341.799 1080.21Z" fill="#ADC5CF"/>
<path d="M305.813 1080.21C305.855 1082.49 302.375 1080.63 302.259 1076.28C302.142 1071.94 302.142 1071.94 302.444 1069.87C302.746 1067.81 304.673 1065.94 305.451 1067.28C306.65 1069.35 305.723 1075.45 305.813 1080.21Z" fill="#ADC5CF"/>
<path d="M317.652 1082.25C327.414 1084.93 343.119 1080.02 339.796 1069.8C337.463 1062.63 335.029 1057.45 328.674 1054.82C319.152 1050.88 310.633 1056.4 307.853 1069.3C306.543 1075.39 310.86 1080.38 317.652 1082.25Z" fill="#ADC5CF"/>
<path d="M638.799 1079.45C638.756 1081.73 642.237 1079.87 642.353 1075.52C642.47 1071.18 642.469 1071.18 642.167 1069.11C641.865 1067.05 639.939 1065.18 639.161 1066.52C637.962 1068.59 638.889 1074.69 638.799 1079.45Z" fill="#ADC5CF"/>
<path d="M602.813 1079.45C602.855 1081.73 599.375 1079.87 599.259 1075.52C599.142 1071.18 599.142 1071.18 599.444 1069.11C599.746 1067.05 601.673 1065.18 602.451 1066.52C603.65 1068.59 602.723 1074.69 602.813 1079.45Z" fill="#ADC5CF"/>
<path d="M614.652 1081.49C624.414 1084.17 640.119 1079.26 636.796 1069.04C634.463 1061.87 632.029 1056.69 625.674 1054.06C616.152 1050.12 607.633 1055.64 604.853 1068.55C603.543 1074.63 607.86 1079.62 614.652 1081.49Z" fill="#ADC5CF"/>
<path d="M638.799 880.452C638.756 882.731 642.237 880.87 642.353 876.525C642.47 872.179 642.469 872.179 642.167 870.114C641.865 868.048 639.939 866.183 639.161 867.524C637.962 869.593 638.889 875.69 638.799 880.452Z" fill="#ADC5CF"/>
<path d="M602.813 880.453C602.855 882.731 599.375 880.87 599.259 876.525C599.142 872.179 599.142 872.18 599.444 870.114C599.746 868.048 601.673 866.183 602.451 867.524C603.65 869.593 602.723 875.69 602.813 880.453Z" fill="#ADC5CF"/>
<path d="M614.652 882.489C624.414 885.168 640.119 880.259 636.796 870.04C634.463 862.867 632.029 857.692 625.674 855.06C616.152 851.117 607.633 856.64 604.853 869.546C603.543 875.628 607.86 880.624 614.652 882.489Z" fill="#ADC5CF"/>
<path d="M343.799 880.452C343.756 882.731 347.237 880.87 347.353 876.525C347.47 872.179 347.469 872.179 347.167 870.114C346.865 868.048 344.939 866.183 344.161 867.524C342.962 869.593 343.889 875.69 343.799 880.452Z" fill="#ADC5CF"/>
<path d="M307.813 880.453C307.855 882.731 304.375 880.87 304.259 876.525C304.142 872.179 304.142 872.18 304.444 870.114C304.746 868.048 306.673 866.183 307.451 867.524C308.65 869.593 307.723 875.69 307.813 880.453Z" fill="#ADC5CF"/>
<path d="M319.652 882.489C329.414 885.168 345.119 880.259 341.796 870.04C339.463 862.867 337.029 857.692 330.674 855.06C321.152 851.117 312.633 856.64 309.853 869.546C308.543 875.628 312.86 880.624 319.652 882.489Z" fill="#ADC5CF"/>
<path d="M388.8 998.554C388.757 996.275 392.237 998.136 392.354 1002.48C392.47 1006.83 392.47 1006.83 392.168 1008.89C391.866 1010.96 389.939 1012.82 389.162 1011.48C387.962 1009.41 388.889 1003.32 388.8 998.554Z" fill="#ADC5CF"/>
<path d="M352.813 998.553C352.856 996.275 349.376 998.136 349.259 1002.48C349.142 1006.83 349.143 1006.83 349.445 1008.89C349.747 1010.96 351.674 1012.82 352.451 1011.48C353.651 1009.41 352.724 1003.32 352.813 998.553Z" fill="#ADC5CF"/>
<path d="M364.652 996.518C374.415 993.838 390.12 998.747 386.796 1008.97C384.464 1016.14 382.029 1021.31 375.674 1023.95C366.152 1027.89 357.633 1022.37 354.853 1009.46C353.543 1003.38 357.861 998.382 364.652 996.518Z" fill="#ADC5CF"/>
<path d="M685.799 997.795C685.756 995.517 689.237 997.378 689.353 1001.72C689.47 1006.07 689.469 1006.07 689.167 1008.13C688.865 1010.2 686.939 1012.07 686.161 1010.72C684.962 1008.66 685.889 1002.56 685.799 997.795Z" fill="#ADC5CF"/>
<path d="M649.813 997.795C649.855 995.517 646.375 997.378 646.259 1001.72C646.142 1006.07 646.142 1006.07 646.444 1008.13C646.746 1010.2 648.673 1012.07 649.451 1010.72C650.65 1008.65 649.723 1002.56 649.813 997.795Z" fill="#ADC5CF"/>
<path d="M661.652 995.759C671.414 993.079 687.119 997.988 683.796 1008.21C681.463 1015.38 679.029 1020.56 672.674 1023.19C663.152 1027.13 654.633 1021.61 651.853 1008.7C650.543 1002.62 654.86 997.623 661.652 995.759Z" fill="#ADC5CF"/>
<path d="M685.799 798.795C685.756 796.517 689.237 798.378 689.353 802.723C689.47 807.068 689.469 807.068 689.167 809.134C688.865 811.199 686.939 813.065 686.161 811.724C684.962 809.655 685.889 803.558 685.799 798.795Z" fill="#ADC5CF"/>
<path d="M649.813 798.795C649.855 796.517 646.375 798.378 646.259 802.723C646.142 807.068 646.142 807.068 646.444 809.134C646.746 811.199 648.673 813.065 649.451 811.724C650.65 809.655 649.723 803.558 649.813 798.795Z" fill="#ADC5CF"/>
<path d="M661.652 796.759C671.414 794.079 687.119 798.988 683.796 809.208C681.463 816.381 679.029 821.556 672.674 824.187C663.152 828.131 654.633 822.608 651.853 809.702C650.543 803.62 654.86 798.623 661.652 796.759Z" fill="#ADC5CF"/>
<path d="M390.799 798.795C390.756 796.517 394.237 798.378 394.353 802.723C394.47 807.068 394.469 807.068 394.167 809.134C393.865 811.199 391.939 813.065 391.161 811.724C389.962 809.655 390.889 803.558 390.799 798.795Z" fill="#ADC5CF"/>
<path d="M354.813 798.795C354.855 796.517 351.375 798.378 351.259 802.723C351.142 807.068 351.142 807.068 351.444 809.134C351.746 811.199 353.673 813.065 354.451 811.724C355.65 809.655 354.723 803.558 354.813 798.795Z" fill="#ADC5CF"/>
<path d="M366.652 796.759C376.414 794.079 392.119 798.988 388.796 809.208C386.463 816.381 384.029 821.556 377.674 824.187C368.152 828.131 359.633 822.608 356.853 809.702C355.543 803.62 359.86 798.623 366.652 796.759Z" fill="#ADC5CF"/>
<path d="M387.74 1079.97C387.697 1082.25 391.177 1080.39 391.294 1076.04C391.41 1071.7 391.41 1071.7 391.108 1069.63C390.806 1067.57 388.879 1065.7 388.102 1067.04C386.902 1069.11 387.829 1075.21 387.74 1079.97Z" fill="#ADC5CF"/>
<path d="M351.753 1079.97C351.796 1082.25 348.316 1080.39 348.199 1076.04C348.082 1071.7 348.083 1071.7 348.385 1069.63C348.687 1067.57 350.613 1065.7 351.391 1067.04C352.591 1069.11 351.664 1075.21 351.753 1079.97Z" fill="#ADC5CF"/>
<path d="M363.592 1082.01C373.355 1084.69 389.06 1079.78 385.736 1069.56C383.404 1062.38 380.969 1057.21 374.614 1054.58C365.092 1050.63 356.573 1056.16 353.793 1069.06C352.483 1075.14 356.801 1080.14 363.592 1082.01Z" fill="#ADC5CF"/>
<path d="M684.74 1079.21C684.697 1081.49 688.177 1079.63 688.294 1075.28C688.41 1070.94 688.41 1070.94 688.108 1068.87C687.806 1066.81 685.879 1064.94 685.102 1066.28C683.902 1068.35 684.829 1074.45 684.74 1079.21Z" fill="#ADC5CF"/>
<path d="M648.753 1079.21C648.796 1081.49 645.316 1079.63 645.199 1075.28C645.082 1070.94 645.083 1070.94 645.385 1068.87C645.687 1066.81 647.613 1064.94 648.391 1066.28C649.591 1068.35 648.664 1074.45 648.753 1079.21Z" fill="#ADC5CF"/>
<path d="M660.592 1081.25C670.355 1083.93 686.06 1079.02 682.736 1068.8C680.404 1061.63 677.969 1056.45 671.614 1053.82C662.092 1049.88 653.573 1055.4 650.793 1068.3C649.483 1074.39 653.801 1079.38 660.592 1081.25Z" fill="#ADC5CF"/>
<path d="M684.74 880.211C684.697 882.489 688.177 880.628 688.294 876.283C688.41 871.938 688.41 871.938 688.108 869.872C687.806 867.807 685.879 865.941 685.102 867.282C683.902 869.351 684.829 875.449 684.74 880.211Z" fill="#ADC5CF"/>
<path d="M648.753 880.211C648.796 882.49 645.316 880.628 645.199 876.283C645.082 871.938 645.083 871.938 645.385 869.872C645.687 867.807 647.613 865.941 648.391 867.282C649.591 869.351 648.664 875.449 648.753 880.211Z" fill="#ADC5CF"/>
<path d="M660.592 882.247C670.355 884.927 686.06 880.018 682.736 869.798C680.404 862.625 677.969 857.45 671.614 854.819C662.092 850.875 653.573 856.398 650.793 869.304C649.483 875.386 653.801 880.383 660.592 882.247Z" fill="#ADC5CF"/>
<path d="M389.74 880.211C389.697 882.489 393.177 880.628 393.294 876.283C393.41 871.938 393.41 871.938 393.108 869.872C392.806 867.807 390.879 865.941 390.102 867.282C388.902 869.351 389.829 875.449 389.74 880.211Z" fill="#ADC5CF"/>
<path d="M353.753 880.211C353.796 882.49 350.316 880.628 350.199 876.283C350.082 871.938 350.083 871.938 350.385 869.872C350.687 867.807 352.613 865.941 353.391 867.282C354.591 869.351 353.664 875.449 353.753 880.211Z" fill="#ADC5CF"/>
<path d="M365.592 882.247C375.355 884.927 391.06 880.018 387.736 869.798C385.404 862.625 382.969 857.45 376.614 854.819C367.092 850.875 358.573 856.398 355.793 869.304C354.483 875.386 358.801 880.383 365.592 882.247Z" fill="#ADC5CF"/>
<path d="M434.74 998.795C434.697 996.517 438.177 998.378 438.294 1002.72C438.41 1007.07 438.41 1007.07 438.108 1009.13C437.806 1011.2 435.879 1013.07 435.102 1011.72C433.902 1009.66 434.829 1003.56 434.74 998.795Z" fill="#ADC5CF"/>
<path d="M398.753 998.795C398.796 996.517 395.316 998.378 395.199 1002.72C395.082 1007.07 395.083 1007.07 395.385 1009.13C395.687 1011.2 397.613 1013.07 398.391 1011.72C399.591 1009.65 398.664 1003.56 398.753 998.795Z" fill="#ADC5CF"/>
<path d="M410.592 996.759C420.355 994.079 436.06 998.988 432.736 1009.21C430.404 1016.38 427.969 1021.56 421.614 1024.19C412.092 1028.13 403.573 1022.61 400.793 1009.7C399.483 1003.62 403.801 998.623 410.592 996.759Z" fill="#ADC5CF"/>
<path d="M731.74 998.037C731.697 995.758 735.177 997.62 735.294 1001.96C735.41 1006.31 735.41 1006.31 735.108 1008.38C734.806 1010.44 732.879 1012.31 732.102 1010.97C730.902 1008.9 731.829 1002.8 731.74 998.037Z" fill="#ADC5CF"/>
<path d="M695.753 998.037C695.796 995.758 692.316 997.619 692.199 1001.96C692.082 1006.31 692.083 1006.31 692.385 1008.38C692.687 1010.44 694.613 1012.31 695.391 1010.97C696.591 1008.9 695.664 1002.8 695.753 998.037Z" fill="#ADC5CF"/>
<path d="M707.592 996.001C717.355 993.321 733.06 998.23 729.736 1008.45C727.404 1015.62 724.969 1020.8 718.614 1023.43C709.092 1027.37 700.573 1021.85 697.793 1008.94C696.483 1002.86 700.801 997.865 707.592 996.001Z" fill="#ADC5CF"/>
<path d="M731.74 799.037C731.697 796.758 735.177 798.62 735.294 802.965C735.41 807.31 735.41 807.31 735.108 809.376C734.806 811.441 732.879 813.307 732.102 811.966C730.902 809.897 731.829 803.799 731.74 799.037Z" fill="#ADC5CF"/>
<path d="M695.753 799.037C695.796 796.758 692.316 798.619 692.199 802.965C692.082 807.31 692.083 807.31 692.385 809.375C692.687 811.441 694.613 813.307 695.391 811.965C696.591 809.897 695.664 803.799 695.753 799.037Z" fill="#ADC5CF"/>
<path d="M707.592 797.001C717.355 794.321 733.06 799.23 729.736 809.45C727.404 816.623 724.969 821.798 718.614 824.429C709.092 828.372 700.573 822.85 697.793 809.943C696.483 803.861 700.801 798.865 707.592 797.001Z" fill="#ADC5CF"/>
<path d="M436.74 799.037C436.697 796.758 440.177 798.62 440.294 802.965C440.41 807.31 440.41 807.31 440.108 809.376C439.806 811.441 437.879 813.307 437.102 811.966C435.902 809.897 436.829 803.799 436.74 799.037Z" fill="#ADC5CF"/>
<path d="M400.753 799.037C400.796 796.758 397.316 798.619 397.199 802.965C397.082 807.31 397.083 807.31 397.385 809.375C397.687 811.441 399.613 813.307 400.391 811.965C401.591 809.897 400.664 803.799 400.753 799.037Z" fill="#ADC5CF"/>
<path d="M412.592 797.001C422.355 794.321 438.06 799.23 434.736 809.45C432.404 816.623 429.969 821.798 423.614 824.429C414.092 828.372 405.573 822.85 402.793 809.943C401.483 803.861 405.801 798.865 412.592 797.001Z" fill="#ADC5CF"/>
<path d="M433.679 1079.73C433.636 1082.01 437.117 1080.15 437.233 1075.8C437.35 1071.45 437.349 1071.45 437.047 1069.39C436.745 1067.32 434.819 1065.46 434.041 1066.8C432.841 1068.87 433.768 1074.97 433.679 1079.73Z" fill="#ADC5CF"/>
<path d="M397.693 1079.73C397.735 1082.01 394.255 1080.15 394.138 1075.8C394.022 1071.45 394.022 1071.45 394.324 1069.39C394.626 1067.32 396.553 1065.46 397.331 1066.8C398.53 1068.87 397.603 1074.97 397.693 1079.73Z" fill="#ADC5CF"/>
<path d="M409.532 1081.76C419.294 1084.44 434.999 1079.53 431.676 1069.31C429.343 1062.14 426.909 1056.97 420.554 1054.34C411.031 1050.39 402.513 1055.92 399.733 1068.82C398.423 1074.9 402.74 1079.9 409.532 1081.76Z" fill="#ADC5CF"/>
<path d="M730.679 1078.97C730.636 1081.25 734.117 1079.39 734.233 1075.04C734.35 1070.7 734.349 1070.7 734.047 1068.63C733.745 1066.57 731.819 1064.7 731.041 1066.04C729.841 1068.11 730.768 1074.21 730.679 1078.97Z" fill="#ADC5CF"/>
<path d="M694.693 1078.97C694.735 1081.25 691.255 1079.39 691.138 1075.04C691.022 1070.7 691.022 1070.7 691.324 1068.63C691.626 1066.57 693.553 1064.7 694.331 1066.04C695.53 1068.11 694.603 1074.21 694.693 1078.97Z" fill="#ADC5CF"/>
<path d="M706.532 1081.01C716.294 1083.69 731.999 1078.78 728.676 1068.56C726.343 1061.38 723.909 1056.21 717.554 1053.58C708.031 1049.63 699.513 1055.16 696.733 1068.06C695.423 1074.14 699.74 1079.14 706.532 1081.01Z" fill="#ADC5CF"/>
<path d="M730.679 879.969C730.636 882.248 734.117 880.387 734.233 876.041C734.35 871.696 734.349 871.696 734.047 869.631C733.745 867.565 731.819 865.699 731.041 867.041C729.841 869.109 730.768 875.207 730.679 879.969Z" fill="#ADC5CF"/>
<path d="M694.693 879.969C694.735 882.248 691.255 880.387 691.138 876.042C691.022 871.696 691.022 871.696 691.324 869.631C691.626 867.565 693.553 865.7 694.331 867.041C695.53 869.11 694.603 875.207 694.693 879.969Z" fill="#ADC5CF"/>
<path d="M706.532 882.005C716.294 884.685 731.999 879.776 728.676 869.557C726.343 862.384 723.909 857.209 717.554 854.577C708.031 850.634 699.513 856.157 696.733 869.063C695.423 875.145 699.74 880.141 706.532 882.005Z" fill="#ADC5CF"/>
<path d="M435.679 879.969C435.636 882.248 439.117 880.387 439.233 876.041C439.35 871.696 439.349 871.696 439.047 869.631C438.745 867.565 436.819 865.699 436.041 867.041C434.841 869.109 435.768 875.207 435.679 879.969Z" fill="#ADC5CF"/>
<path d="M399.693 879.969C399.735 882.248 396.255 880.387 396.138 876.042C396.022 871.696 396.022 871.696 396.324 869.631C396.626 867.565 398.553 865.7 399.331 867.041C400.53 869.11 399.603 875.207 399.693 879.969Z" fill="#ADC5CF"/>
<path d="M411.532 882.005C421.294 884.685 436.999 879.776 433.676 869.557C431.343 862.384 428.909 857.209 422.554 854.577C413.031 850.634 404.513 856.157 401.733 869.063C400.423 875.145 404.74 880.141 411.532 882.005Z" fill="#ADC5CF"/>
<path d="M480.68 999.037C480.637 996.758 484.117 998.62 484.234 1002.96C484.35 1007.31 484.35 1007.31 484.048 1009.38C483.746 1011.44 481.819 1013.31 481.042 1011.97C479.842 1009.9 480.769 1003.8 480.68 999.037Z" fill="#ADC5CF"/>
<path d="M444.693 999.037C444.736 996.758 441.256 998.619 441.139 1002.96C441.022 1007.31 441.023 1007.31 441.325 1009.38C441.627 1011.44 443.553 1013.31 444.331 1011.97C445.531 1009.9 444.604 1003.8 444.693 999.037Z" fill="#ADC5CF"/>
<path d="M456.532 997.001C466.295 994.321 481.999 999.23 478.676 1009.45C476.344 1016.62 473.909 1021.8 467.554 1024.43C458.032 1028.37 449.513 1022.85 446.733 1009.94C445.423 1003.86 449.741 998.865 456.532 997.001Z" fill="#ADC5CF"/>
<path d="M777.679 998.278C777.636 996 781.117 997.861 781.233 1002.21C781.35 1006.55 781.349 1006.55 781.047 1008.62C780.745 1010.68 778.819 1012.55 778.041 1011.21C776.841 1009.14 777.768 1003.04 777.679 998.278Z" fill="#ADC5CF"/>
<path d="M741.693 998.278C741.735 996 738.255 997.861 738.138 1002.21C738.022 1006.55 738.022 1006.55 738.324 1008.62C738.626 1010.68 740.553 1012.55 741.331 1011.21C742.53 1009.14 741.603 1003.04 741.693 998.278Z" fill="#ADC5CF"/>
<path d="M753.532 996.242C763.294 993.563 778.999 998.472 775.676 1008.69C773.343 1015.86 770.909 1021.04 764.554 1023.67C755.031 1027.61 746.513 1022.09 743.733 1009.19C742.423 1003.1 746.74 998.107 753.532 996.242Z" fill="#ADC5CF"/>
<path d="M777.679 799.278C777.636 797 781.117 798.861 781.233 803.206C781.35 807.552 781.349 807.552 781.047 809.617C780.745 811.683 778.819 813.548 778.041 812.207C776.841 810.138 777.768 804.041 777.679 799.278Z" fill="#ADC5CF"/>
<path d="M741.693 799.278C741.735 797 738.255 798.861 738.138 803.206C738.022 807.552 738.022 807.551 738.324 809.617C738.626 811.683 740.553 813.548 741.331 812.207C742.53 810.138 741.603 804.041 741.693 799.278Z" fill="#ADC5CF"/>
<path d="M753.532 797.242C763.294 794.563 778.999 799.472 775.676 809.691C773.343 816.864 770.909 822.039 764.554 824.671C755.031 828.614 746.513 823.091 743.733 810.185C742.423 804.103 746.74 799.107 753.532 797.242Z" fill="#ADC5CF"/>
<path d="M482.679 799.278C482.636 797 486.117 798.861 486.233 803.206C486.35 807.552 486.349 807.552 486.047 809.617C485.745 811.683 483.819 813.548 483.041 812.207C481.841 810.138 482.768 804.041 482.679 799.278Z" fill="#ADC5CF"/>
<path d="M446.693 799.278C446.735 797 443.255 798.861 443.138 803.206C443.022 807.552 443.022 807.551 443.324 809.617C443.626 811.683 445.553 813.548 446.331 812.207C447.53 810.138 446.603 804.041 446.693 799.278Z" fill="#ADC5CF"/>
<path d="M458.532 797.242C468.294 794.563 483.999 799.472 480.676 809.691C478.343 816.864 475.909 822.039 469.554 824.671C460.031 828.614 451.513 823.091 448.733 810.185C447.423 804.103 451.74 799.107 458.532 797.242Z" fill="#ADC5CF"/>
<path d="M479.619 1079.49C479.577 1081.76 483.057 1079.9 483.174 1075.56C483.29 1071.21 483.29 1071.21 482.988 1069.15C482.686 1067.08 480.759 1065.22 479.981 1066.56C478.782 1068.63 479.709 1074.72 479.619 1079.49Z" fill="#ADC5CF"/>
<path d="M443.633 1079.49C443.676 1081.76 440.195 1079.9 440.079 1075.56C439.962 1071.21 439.963 1071.21 440.265 1069.15C440.567 1067.08 442.493 1065.22 443.271 1066.56C444.471 1068.63 443.544 1074.72 443.633 1079.49Z" fill="#ADC5CF"/>
<path d="M455.472 1081.52C465.235 1084.2 480.939 1079.29 477.616 1069.07C475.284 1061.9 472.849 1056.73 466.494 1054.09C456.972 1050.15 448.453 1055.67 445.673 1068.58C444.363 1074.66 448.681 1079.66 455.472 1081.52Z" fill="#ADC5CF"/>
<path d="M776.619 1078.73C776.577 1081.01 780.057 1079.14 780.174 1074.8C780.29 1070.45 780.29 1070.45 779.988 1068.39C779.686 1066.32 777.759 1064.46 776.981 1065.8C775.782 1067.87 776.709 1073.97 776.619 1078.73Z" fill="#ADC5CF"/>
<path d="M740.633 1078.73C740.676 1081.01 737.195 1079.15 737.079 1074.8C736.962 1070.45 736.963 1070.45 737.265 1068.39C737.567 1066.32 739.493 1064.46 740.271 1065.8C741.471 1067.87 740.544 1073.97 740.633 1078.73Z" fill="#ADC5CF"/>
<path d="M752.472 1080.76C762.235 1083.44 777.939 1078.53 774.616 1068.31C772.284 1061.14 769.849 1055.97 763.494 1053.34C753.972 1049.39 745.453 1054.91 742.673 1067.82C741.363 1073.9 745.681 1078.9 752.472 1080.76Z" fill="#ADC5CF"/>
<path d="M822.86 1079.49C822.817 1081.76 826.297 1079.9 826.414 1075.56C826.53 1071.21 826.53 1071.21 826.228 1069.15C825.926 1067.08 823.999 1065.22 823.222 1066.56C822.022 1068.63 822.949 1074.72 822.86 1079.49Z" fill="#ADC5CF"/>
<path d="M786.873 1079.49C786.916 1081.76 783.436 1079.9 783.319 1075.56C783.203 1071.21 783.203 1071.21 783.505 1069.15C783.807 1067.08 785.734 1065.22 786.511 1066.56C787.711 1068.63 786.784 1074.72 786.873 1079.49Z" fill="#ADC5CF"/>
<path d="M798.712 1081.52C808.475 1084.2 824.18 1079.29 820.856 1069.07C818.524 1061.9 816.089 1056.73 809.734 1054.09C800.212 1050.15 791.693 1055.67 788.913 1068.58C787.603 1074.66 791.921 1079.66 798.712 1081.52Z" fill="#ADC5CF"/>
<path d="M817.194 996.085C819.462 996.3 817.87 992.689 813.546 992.243C809.222 991.798 809.222 991.798 807.14 991.943C805.057 992.088 803.051 993.867 804.329 994.744C806.301 996.097 812.452 995.635 817.194 996.085Z" fill="#ADC5CF"/>
<path d="M814.467 1031.97C816.742 1032.1 814.623 1035.43 810.281 1035.21C805.94 1035 805.94 1035 803.903 1034.54C801.866 1034.09 800.152 1032.02 801.548 1031.35C803.702 1030.31 809.712 1031.7 814.467 1031.97Z" fill="#ADC5CF"/>
<path d="M817.394 1020.32C820.806 1010.79 817.101 994.755 806.659 997.294C799.33 999.076 793.985 1001.11 790.88 1007.25C786.226 1016.45 791.088 1025.36 803.746 1029.11C809.711 1030.87 815.021 1026.95 817.394 1020.32Z" fill="#ADC5CF"/>
<path d="M817.194 996.085C819.462 996.3 817.87 992.689 813.546 992.243C809.222 991.798 809.222 991.798 807.14 991.943C805.057 992.088 803.051 993.867 804.329 994.744C806.301 996.097 812.452 995.635 817.194 996.085Z" fill="#ADC5CF"/>
<path d="M814.467 1031.97C816.742 1032.1 814.623 1035.43 810.281 1035.21C805.94 1035 805.94 1035 803.903 1034.54C801.866 1034.09 800.152 1032.02 801.548 1031.35C803.702 1030.31 809.712 1031.7 814.467 1031.97Z" fill="#ADC5CF"/>
<path d="M817.394 1020.32C820.806 1010.79 817.101 994.755 806.659 997.294C799.33 999.076 793.985 1001.11 790.88 1007.25C786.226 1016.45 791.088 1025.36 803.746 1029.11C809.711 1030.87 815.021 1026.95 817.394 1020.32Z" fill="#ADC5CF"/>
<path d="M819.194 946.085C821.462 946.3 819.87 942.689 815.546 942.243C811.222 941.798 811.222 941.798 809.14 941.943C807.057 942.088 805.051 943.867 806.329 944.744C808.301 946.097 814.452 945.635 819.194 946.085Z" fill="#ADC5CF"/>
<path d="M816.467 981.968C818.742 982.098 816.623 985.427 812.281 985.214C807.94 985.001 807.94 985.001 805.903 984.543C803.866 984.086 802.152 982.023 803.548 981.349C805.702 980.31 811.712 981.696 816.467 981.968Z" fill="#ADC5CF"/>
<path d="M819.394 970.317C822.806 960.786 819.101 944.754 808.659 947.294C801.33 949.076 795.985 951.112 792.88 957.249C788.226 966.445 793.088 975.358 805.746 979.108C811.711 980.875 817.021 976.948 819.394 970.317Z" fill="#ADC5CF"/>
<path d="M820.194 896.085C822.462 896.3 820.87 892.689 816.546 892.243C812.222 891.798 812.222 891.798 810.14 891.943C808.057 892.088 806.051 893.867 807.329 894.744C809.301 896.097 815.452 895.635 820.194 896.085Z" fill="#ADC5CF"/>
<path d="M817.467 931.968C819.742 932.098 817.623 935.427 813.281 935.214C808.94 935.001 808.94 935.001 806.903 934.543C804.866 934.086 803.152 932.023 804.548 931.349C806.702 930.31 812.712 931.696 817.467 931.968Z" fill="#ADC5CF"/>
<path d="M820.394 920.317C823.806 910.786 820.101 894.754 809.659 897.294C802.33 899.076 796.985 901.112 793.88 907.249C789.226 916.445 794.088 925.358 806.746 929.108C812.711 930.875 818.021 926.948 820.394 920.317Z" fill="#ADC5CF"/>
<path d="M820.194 848.085C822.462 848.3 820.87 844.689 816.546 844.243C812.222 843.798 812.222 843.798 810.14 843.943C808.057 844.088 806.051 845.867 807.329 846.744C809.301 848.097 815.452 847.635 820.194 848.085Z" fill="#ADC5CF"/>
<path d="M817.467 883.968C819.742 884.098 817.623 887.427 813.281 887.214C808.94 887.001 808.94 887.001 806.903 886.543C804.866 886.086 803.152 884.023 804.548 883.349C806.702 882.31 812.712 883.696 817.467 883.968Z" fill="#ADC5CF"/>
<path d="M820.394 872.317C823.806 862.786 820.101 846.754 809.659 849.294C802.33 851.076 796.985 853.112 793.88 859.249C789.226 868.445 794.088 877.358 806.746 881.108C812.711 882.875 818.021 878.948 820.394 872.317Z" fill="#ADC5CF"/>
<path d="M820.194 798.085C822.462 798.3 820.87 794.689 816.546 794.243C812.222 793.798 812.222 793.798 810.14 793.943C808.057 794.088 806.051 795.867 807.329 796.744C809.301 798.097 815.452 797.635 820.194 798.085Z" fill="#ADC5CF"/>
<path d="M817.467 833.968C819.742 834.098 817.623 837.427 813.281 837.214C808.94 837.001 808.94 837.001 806.903 836.543C804.866 836.086 803.152 834.023 804.548 833.349C806.702 832.31 812.712 833.696 817.467 833.968Z" fill="#ADC5CF"/>
<path d="M820.394 822.317C823.806 812.786 820.101 796.754 809.659 799.294C802.33 801.076 796.985 803.112 793.88 809.249C789.226 818.445 794.088 827.358 806.746 831.108C812.711 832.875 818.021 828.948 820.394 822.317Z" fill="#ADC5CF"/>
<path d="M776.619 879.728C776.577 882.006 780.057 880.145 780.174 875.8C780.29 871.454 780.29 871.455 779.988 869.389C779.686 867.323 777.759 865.458 776.981 866.799C775.782 868.868 776.709 874.965 776.619 879.728Z" fill="#ADC5CF"/>
<path d="M740.633 879.728C740.676 882.006 737.195 880.145 737.079 875.8C736.962 871.455 736.963 871.455 737.265 869.389C737.567 867.323 739.493 865.458 740.271 866.799C741.471 868.868 740.544 874.965 740.633 879.728Z" fill="#ADC5CF"/>
<path d="M752.472 881.764C762.235 884.443 777.939 879.534 774.616 869.315C772.284 862.142 769.849 856.967 763.494 854.335C753.972 850.392 745.453 855.915 742.673 868.821C741.363 874.903 745.681 879.899 752.472 881.764Z" fill="#ADC5CF"/>
<path d="M481.619 879.728C481.577 882.006 485.057 880.145 485.174 875.8C485.29 871.454 485.29 871.455 484.988 869.389C484.686 867.323 482.759 865.458 481.981 866.799C480.782 868.868 481.709 874.965 481.619 879.728Z" fill="#ADC5CF"/>
<path d="M445.633 879.728C445.676 882.006 442.195 880.145 442.079 875.8C441.962 871.455 441.963 871.455 442.265 869.389C442.567 867.323 444.493 865.458 445.271 866.799C446.471 868.868 445.544 874.965 445.633 879.728Z" fill="#ADC5CF"/>
<path d="M457.472 881.764C467.235 884.443 482.939 879.534 479.616 869.315C477.284 862.142 474.849 856.967 468.494 854.335C458.972 850.392 450.453 855.915 447.673 868.821C446.363 874.903 450.681 879.899 457.472 881.764Z" fill="#ADC5CF"/>
<rect x="496" y="1105" width="47" height="14" rx="7" fill="#D6F5CD"/>
<path d="M500.84 1107.2H506.65V1108.91H502.758V1111.19H506.3V1112.9H502.758V1115.29H506.72V1117H500.84V1107.2ZM510.59 1111.89L509.82 1110.35H509.75L509.974 1111.89V1117H508.154V1107.13H509.554L513.264 1112.35L514.006 1113.85H514.076L513.852 1112.35V1107.2H515.672V1117.07H514.272L510.59 1111.89ZM524.314 1108.91H521.458V1117H519.54V1108.91H516.67V1107.2H524.314V1108.91ZM525.313 1107.3C525.527 1107.26 525.756 1107.23 525.999 1107.2C526.251 1107.16 526.498 1107.13 526.741 1107.12C526.993 1107.1 527.235 1107.08 527.469 1107.07C527.702 1107.06 527.917 1107.06 528.113 1107.06C528.57 1107.06 529.018 1107.1 529.457 1107.19C529.905 1107.27 530.301 1107.41 530.647 1107.62C531.001 1107.83 531.281 1108.11 531.487 1108.47C531.701 1108.83 531.809 1109.28 531.809 1109.82C531.809 1110.62 531.622 1111.27 531.249 1111.78C530.875 1112.28 530.376 1112.63 529.751 1112.83L530.437 1113.26L532.677 1117H530.465L528.239 1113.16L527.231 1112.98V1117H525.313V1107.3ZM528.253 1108.77C528.057 1108.77 527.861 1108.77 527.665 1108.78C527.478 1108.79 527.333 1108.81 527.231 1108.84V1111.68H528.043C528.575 1111.68 528.999 1111.56 529.317 1111.32C529.634 1111.07 529.793 1110.67 529.793 1110.11C529.793 1109.69 529.662 1109.37 529.401 1109.13C529.139 1108.89 528.757 1108.77 528.253 1108.77ZM535.253 1113.36L532.033 1107.2H534.315L536.107 1110.88L536.303 1111.92H536.373L536.583 1110.85L538.319 1107.2H540.377L537.171 1113.35V1117H535.253V1113.36Z" fill="#3A8324"/>
<rect x="34" y="613" width="55" height="22" rx="11" transform="rotate(-90 34 613)" fill="#F5DCCD"/>
<rect x="820" y="516" width="55" height="22" rx="11" transform="rotate(-90 820 516)" fill="#F5DCCD"/>
<path d="M38.4 600.92V593.45H40.596V598.454H43.53V593.9H45.726V598.454H48.804V593.36H51V600.92H38.4ZM44.592 588.546L38.4 592.056V589.086L42.036 587.142L43.314 586.71L42.036 586.296L38.4 584.262V581.58L44.466 585.216L51 581.4V584.334L47.112 586.548L45.78 587.034L47.112 587.502L51 589.734V592.416L44.592 588.546ZM38.4 579.873V577.407H51V579.873H38.4ZM40.596 566.046V569.718H51V572.184H40.596V575.874H38.4V566.046H40.596Z" fill="#946243"/>
<path d="M824.4 503.92V496.45H826.596V501.454H829.53V496.9H831.726V501.454H834.804V496.36H837V503.92H824.4ZM830.592 491.546L824.4 495.056V492.086L828.036 490.142L829.314 489.71L828.036 489.296L824.4 487.262V484.58L830.466 488.216L837 484.4V487.334L833.112 489.548L831.78 490.034L833.112 490.502L837 492.734V495.416L830.592 491.546ZM824.4 482.873V480.407H837V482.873H824.4ZM826.596 469.046V472.718H837V475.184H826.596V478.874H824.4V469.046H826.596Z" fill="#946243"/>
</g>
<rect x="2" y="2" width="871" height="1134" stroke="#84A3B8" stroke-width="4" stroke-linecap="round"/>
<rect x="843" y="452" width="32" height="71" fill="white"/>
<rect y="547" width="32" height="71" fill="white"/>
<rect x="498" y="1130" width="44" height="8" fill="white"/>
<circle cx="100.5" cy="839.5" r="14.5" fill="#05AA4A"/>
<circle cx="100.5" cy="1036.5" r="14.5" fill="#05AA4A"/>
<circle cx="275.5" cy="568.5" r="14.5" fill="#05AA4A"/>
<circle cx="275.5" cy="395.5" r="14.5" fill="#05AA4A"/>
<circle cx="553.5" cy="125.5" r="14.5" fill="#05AA4A"/>
<circle cx="749.5" cy="200.5" r="14.5" fill="#05AA4A"/>
<circle cx="633.5" cy="568.5" r="14.5" fill="#05AA4A"/>
<defs>
<clipPath id="clip0_687_287">
<rect width="875" height="1138" fill="white"/>
</clipPath>
</defs>
</svg>
